<svg width="341" height="617" viewBox="0 0 341 617" fill="none" xmlns="http://www.w3.org/2000/svg">
<g opacity="0.8">
<path d="M284.687 442.974C281.426 441.16 274.054 443.298 272.274 446.263C271.476 447.594 272.079 448.944 273.914 449.964C275.912 451.075 277.786 450.85 279.417 451.757C281.007 452.641 281.741 454.317 283.739 455.428C285.574 456.448 287.131 456.3 287.929 454.969C289.709 452.004 287.908 444.765 284.687 442.974ZM278.927 439.162C279.318 437.605 278.515 436.043 277.173 435.652C275.831 435.26 274.426 436.152 274.076 437.732C273.685 439.29 274.488 440.852 275.83 441.243C277.172 441.634 278.577 440.743 278.927 439.162ZM282.872 440.291C284.318 440.69 285.888 439.433 286.42 437.548C286.935 435.603 286.147 433.745 284.7 433.347C283.254 432.948 281.684 434.205 281.152 436.089C280.637 438.034 281.425 439.892 282.872 440.291ZM294.989 445.559C293.966 444.635 292.16 444.746 290.954 445.85C289.707 446.932 289.606 448.549 290.629 449.473C291.652 450.396 293.458 450.286 294.664 449.181C295.911 448.1 296.012 446.483 294.989 445.559ZM287.968 443.125C289.049 444.132 291.115 443.861 292.608 442.46C294.037 441.074 294.384 439.137 293.302 438.13C292.221 437.123 290.155 437.394 288.662 438.795C287.233 440.181 286.886 442.118 287.968 443.125Z" fill="#EEA0C5"/>
</g>
<g opacity="0.8">
<path d="M33.6871 160.974C30.4257 159.16 23.0536 161.298 21.2741 164.263C20.4756 165.594 21.0793 166.944 22.9139 167.964C24.9116 169.075 26.7865 168.85 28.4172 169.757C30.0072 170.641 30.7414 172.317 32.739 173.428C34.5736 174.448 36.1306 174.3 36.9292 172.969C38.7086 170.004 36.9078 162.765 33.6871 160.974ZM27.9272 157.162C28.318 155.605 27.5153 154.043 26.1734 153.652C24.8314 153.26 23.4262 154.152 23.0762 155.732C22.6854 157.29 23.4881 158.852 24.8301 159.243C26.1721 159.634 27.5772 158.743 27.9272 157.162ZM31.8716 158.291C33.3179 158.69 34.8876 157.433 35.4202 155.548C35.9347 153.603 35.1466 151.745 33.7003 151.347C32.254 150.948 30.6843 152.205 30.1518 154.089C29.6372 156.034 30.4253 157.892 31.8716 158.291ZM43.989 163.559C42.9664 162.635 41.1601 162.746 39.9538 163.85C38.707 164.932 38.6064 166.549 39.6289 167.473C40.6515 168.396 42.458 168.286 43.6642 167.181C44.9111 166.1 45.0116 164.483 43.989 163.559ZM36.9677 161.125C38.049 162.132 40.1146 161.861 41.6077 160.46C43.0371 159.074 43.3837 157.137 42.3024 156.13C41.2211 155.123 39.1555 155.394 37.6624 156.795C36.233 158.181 35.8863 160.118 36.9677 161.125Z" fill="#EEA0C5"/>
</g>
<g opacity="0.8">
<path d="M292.687 98.974C289.426 97.1603 282.054 99.2978 280.274 102.263C279.476 103.594 280.079 104.944 281.914 105.964C283.912 107.075 285.786 106.85 287.417 107.757C289.007 108.641 289.741 110.317 291.739 111.428C293.574 112.448 295.131 112.3 295.929 110.969C297.709 108.004 295.908 100.765 292.687 98.974ZM286.927 95.1624C287.318 93.6049 286.515 92.0429 285.173 91.6516C283.831 91.2603 282.426 92.1522 282.076 93.7324C281.685 95.2899 282.488 96.8519 283.83 97.2432C285.172 97.6345 286.577 96.7425 286.927 95.1624ZM290.872 96.291C292.318 96.6896 293.888 95.4327 294.42 93.5484C294.935 91.6034 294.147 89.7453 292.7 89.3466C291.254 88.948 289.684 90.2048 289.152 92.0892C288.637 94.0342 289.425 95.8923 290.872 96.291ZM302.989 101.559C301.966 100.635 300.16 100.746 298.954 101.85C297.707 102.932 297.606 104.549 298.629 105.473C299.652 106.396 301.458 106.286 302.664 105.181C303.911 104.1 304.012 102.483 302.989 101.559ZM295.968 99.1249C297.049 100.132 299.115 99.8608 300.608 98.4599C302.037 97.0743 302.384 95.1373 301.302 94.1303C300.221 93.1233 298.155 93.3944 296.662 94.7953C295.233 96.1809 294.886 98.1179 295.968 99.1249Z" fill="#EEA0C5"/>
</g>
<g opacity="0.8">
<path d="M111.687 481.974C108.426 480.16 101.054 482.298 99.2741 485.263C98.4756 486.594 99.0793 487.944 100.914 488.964C102.912 490.075 104.786 489.85 106.417 490.757C108.007 491.641 108.741 493.317 110.739 494.428C112.574 495.448 114.131 495.3 114.929 493.969C116.709 491.004 114.908 483.765 111.687 481.974ZM105.927 478.162C106.318 476.605 105.515 475.043 104.173 474.652C102.831 474.26 101.426 475.152 101.076 476.732C100.685 478.29 101.488 479.852 102.83 480.243C104.172 480.634 105.577 479.743 105.927 478.162ZM109.872 479.291C111.318 479.69 112.888 478.433 113.42 476.548C113.935 474.603 113.147 472.745 111.7 472.347C110.254 471.948 108.684 473.205 108.152 475.089C107.637 477.034 108.425 478.892 109.872 479.291ZM121.989 484.559C120.966 483.635 119.16 483.746 117.954 484.85C116.707 485.932 116.606 487.549 117.629 488.473C118.652 489.396 120.458 489.286 121.664 488.181C122.911 487.1 123.012 485.483 121.989 484.559ZM114.968 482.125C116.049 483.132 118.115 482.861 119.608 481.46C121.037 480.074 121.384 478.137 120.302 477.13C119.221 476.123 117.155 476.394 115.662 477.795C114.233 479.181 113.886 481.118 114.968 482.125Z" fill="#EEA0C5"/>
</g>
<g opacity="0.8">
<path d="M119.687 63.974C116.426 62.1603 109.054 64.2978 107.274 67.2635C106.476 68.5942 107.079 69.9441 108.914 70.9643C110.912 72.0752 112.786 71.8502 114.417 72.7571C116.007 73.6413 116.741 75.3173 118.739 76.4282C120.574 77.4484 122.131 77.3001 122.929 75.9693C124.709 73.0035 122.908 65.765 119.687 63.974ZM113.927 60.1624C114.318 58.6049 113.515 57.0429 112.173 56.6516C110.831 56.2603 109.426 57.1522 109.076 58.7324C108.685 60.2899 109.488 61.8519 110.83 62.2432C112.172 62.6345 113.577 61.7425 113.927 60.1624ZM117.872 61.291C119.318 61.6896 120.888 60.4327 121.42 58.5484C121.935 56.6034 121.147 54.7453 119.7 54.3466C118.254 53.948 116.684 55.2048 116.152 57.0892C115.637 59.0342 116.425 60.8923 117.872 61.291ZM129.989 66.559C128.966 65.6354 127.16 65.7464 125.954 66.8504C124.707 67.9318 124.606 69.5493 125.629 70.473C126.652 71.3965 128.458 71.2856 129.664 70.1815C130.911 69.1001 131.012 67.4826 129.989 66.559ZM122.968 64.1249C124.049 65.1319 126.115 64.8608 127.608 63.4599C129.037 62.0743 129.384 60.1373 128.302 59.1303C127.221 58.1233 125.155 58.3944 123.662 59.7953C122.233 61.1809 121.886 63.1179 122.968 64.1249Z" fill="#EEA0C5"/>
</g>
<g opacity="0.8">
<path d="M207.687 600.974C204.426 599.16 197.054 601.298 195.274 604.263C194.476 605.594 195.079 606.944 196.914 607.964C198.912 609.075 200.786 608.85 202.417 609.757C204.007 610.641 204.741 612.317 206.739 613.428C208.574 614.448 210.131 614.3 210.929 612.969C212.709 610.004 210.908 602.765 207.687 600.974ZM201.927 597.162C202.318 595.605 201.515 594.043 200.173 593.652C198.831 593.26 197.426 594.152 197.076 595.732C196.685 597.29 197.488 598.852 198.83 599.243C200.172 599.634 201.577 598.743 201.927 597.162ZM205.872 598.291C207.318 598.69 208.888 597.433 209.42 595.548C209.935 593.603 209.147 591.745 207.7 591.347C206.254 590.948 204.684 592.205 204.152 594.089C203.637 596.034 204.425 597.892 205.872 598.291ZM217.989 603.559C216.966 602.635 215.16 602.746 213.954 603.85C212.707 604.932 212.606 606.549 213.629 607.473C214.652 608.396 216.458 608.286 217.664 607.181C218.911 606.1 219.012 604.483 217.989 603.559ZM210.968 601.125C212.049 602.132 214.115 601.861 215.608 600.46C217.037 599.074 217.384 597.137 216.302 596.13C215.221 595.123 213.155 595.394 211.662 596.795C210.233 598.181 209.886 600.118 210.968 601.125Z" fill="#EEA0C5"/>
</g>
<path d="M3.69824 589.131C5.74072 589.131 7.39648 587.534 7.39648 585.565C7.39648 583.596 5.74072 582 3.69824 582C1.65576 582 0 583.596 0 585.565C0 587.534 1.65576 589.131 3.69824 589.131Z" fill="#EEA0C5"/>
<path d="M29.5312 589.131C31.5737 589.131 33.2295 587.534 33.2295 585.565C33.2295 583.596 31.5737 582 29.5312 582C27.4888 582 25.833 583.596 25.833 585.565C25.833 587.534 27.4888 589.131 29.5312 589.131Z" fill="#EEA0C5"/>
<path d="M55.3455 589.131C57.3879 589.131 59.0437 587.534 59.0437 585.565C59.0437 583.596 57.3879 582 55.3455 582C53.303 582 51.6472 583.596 51.6472 585.565C51.6472 587.534 53.303 589.131 55.3455 589.131Z" fill="#EEA0C5"/>
<path d="M81.1785 589.131C83.2209 589.131 84.8767 587.534 84.8767 585.565C84.8767 583.596 83.2209 582 81.1785 582C79.136 582 77.4802 583.596 77.4802 585.565C77.4802 587.534 79.136 589.131 81.1785 589.131Z" fill="#EEA0C5"/>
<path d="M3.69824 614.016C5.74072 614.016 7.39648 612.42 7.39648 610.451C7.39648 608.481 5.74072 606.885 3.69824 606.885C1.65576 606.885 0 608.481 0 610.451C0 612.42 1.65576 614.016 3.69824 614.016Z" fill="#EEA0C5"/>
<path d="M29.5312 614.016C31.5737 614.016 33.2295 612.42 33.2295 610.451C33.2295 608.481 31.5737 606.885 29.5312 606.885C27.4888 606.885 25.833 608.481 25.833 610.451C25.833 612.42 27.4888 614.016 29.5312 614.016Z" fill="#EEA0C5"/>
<path d="M55.3455 614.016C57.3879 614.016 59.0437 612.42 59.0437 610.451C59.0437 608.481 57.3879 606.885 55.3455 606.885C53.303 606.885 51.6472 608.481 51.6472 610.451C51.6472 612.42 53.303 614.016 55.3455 614.016Z" fill="#EEA0C5"/>
<path d="M81.1785 614.016C83.2209 614.016 84.8767 612.42 84.8767 610.451C84.8767 608.481 83.2209 606.885 81.1785 606.885C79.136 606.885 77.4802 608.481 77.4802 610.451C77.4802 612.42 79.136 614.016 81.1785 614.016Z" fill="#EEA0C5"/>
<path d="M259.698 7.13055C261.741 7.13055 263.396 5.53434 263.396 3.56529C263.396 1.59624 261.741 0 259.698 0C257.656 0 256 1.59624 256 3.56529C256 5.53434 257.656 7.13055 259.698 7.13055Z" fill="#EEA0C5"/>
<path d="M285.531 7.13055C287.574 7.13055 289.229 5.53434 289.229 3.56529C289.229 1.59624 287.574 0 285.531 0C283.489 0 281.833 1.59624 281.833 3.56529C281.833 5.53434 283.489 7.13055 285.531 7.13055Z" fill="#EEA0C5"/>
<path d="M311.345 7.13055C313.388 7.13055 315.044 5.53434 315.044 3.56529C315.044 1.59624 313.388 0 311.345 0C309.303 0 307.647 1.59624 307.647 3.56529C307.647 5.53434 309.303 7.13055 311.345 7.13055Z" fill="#EEA0C5"/>
<path d="M337.178 7.13055C339.221 7.13055 340.877 5.53434 340.877 3.56529C340.877 1.59624 339.221 0 337.178 0C335.136 0 333.48 1.59624 333.48 3.56529C333.48 5.53434 335.136 7.13055 337.178 7.13055Z" fill="#EEA0C5"/>
<path d="M259.698 32.0158C261.741 32.0158 263.396 30.4196 263.396 28.4505C263.396 26.4815 261.741 24.8853 259.698 24.8853C257.656 24.8853 256 26.4815 256 28.4505C256 30.4196 257.656 32.0158 259.698 32.0158Z" fill="#EEA0C5"/>
<path d="M285.531 32.0158C287.574 32.0158 289.229 30.4196 289.229 28.4505C289.229 26.4815 287.574 24.8853 285.531 24.8853C283.489 24.8853 281.833 26.4815 281.833 28.4505C281.833 30.4196 283.489 32.0158 285.531 32.0158Z" fill="#EEA0C5"/>
<path d="M311.345 32.0158C313.388 32.0158 315.044 30.4196 315.044 28.4505C315.044 26.4815 313.388 24.8853 311.345 24.8853C309.303 24.8853 307.647 26.4815 307.647 28.4505C307.647 30.4196 309.303 32.0158 311.345 32.0158Z" fill="#EEA0C5"/>
<path d="M337.178 32.0158C339.221 32.0158 340.877 30.4196 340.877 28.4505C340.877 26.4815 339.221 24.8853 337.178 24.8853C335.136 24.8853 333.48 26.4815 333.48 28.4505C333.48 30.4196 335.136 32.0158 337.178 32.0158Z" fill="#EEA0C5"/>
</svg>
