<svg width="101" height="101" viewBox="0 0 101 101" fill="none" xmlns="http://www.w3.org/2000/svg">
<path d="M87.7016 19.4004C85.5522 17.25 83.0001 15.5441 80.1912 14.3802C77.3824 13.2164 74.3717 12.6173 71.3312 12.6173C68.2908 12.6173 65.2801 13.2164 62.4712 14.3802C59.6623 15.5441 57.1102 17.25 54.9608 19.4004L50.5 23.8612L46.0391 19.4004C41.6974 15.0587 35.8088 12.6196 29.6687 12.6196C23.5286 12.6196 17.64 15.0587 13.2983 19.4004C8.9566 23.7421 6.51746 29.6307 6.51746 35.7708C6.51746 41.9109 8.9566 47.7995 13.2983 52.1412L17.7591 56.6021L50.5 89.3429L83.2408 56.6021L87.7016 52.1412C89.8521 49.9918 91.5579 47.4397 92.7218 44.6309C93.8857 41.822 94.4847 38.8113 94.4847 35.7708C94.4847 32.7304 93.8857 29.7197 92.7218 26.9108C91.5579 24.1019 89.8521 21.5498 87.7016 19.4004V19.4004Z" stroke="url(#paint0_linear)" stroke-width="3.92" stroke-linecap="round" stroke-linejoin="round"/>
<defs>
<linearGradient id="paint0_linear" x1="-6.70363" y1="89.1425" x2="83.3929" y2="1.36121" gradientUnits="userSpaceOnUse">
<stop stop-color="#F86B64"/>
<stop offset="1" stop-color="#FA5293"/>
</linearGradient>
</defs>
</svg>
