<svg width="97" height="71" viewBox="0 0 97 71" fill="none" xmlns="http://www.w3.org/2000/svg">
<path d="M16.8567 55.5689H7.01402L4.95474 61.485H0.364996L9.96333 36.0756H13.9248L23.5406 61.485H18.9334L16.8567 55.5689ZM8.25308 52.0088H15.6176L11.9354 41.4681L8.25308 52.0088ZM25.2334 51.9041C25.2334 48.9955 25.9082 46.6628 27.2578 44.906C28.6074 43.1376 30.4165 42.2534 32.6852 42.2534C34.6863 42.2534 36.3035 42.9515 37.5367 44.3476V34.6795H41.7774V61.485H37.9381L37.7287 59.5304C36.4605 61.0661 34.7678 61.834 32.6503 61.834C30.4398 61.834 28.6481 60.944 27.2752 59.1639C25.914 57.3839 25.2334 54.9639 25.2334 51.9041ZM29.4741 52.2706C29.4741 54.1903 29.8406 55.6911 30.5736 56.7731C31.3182 57.8434 32.3711 58.3786 33.7323 58.3786C35.4658 58.3786 36.734 57.6049 37.5367 56.0576V47.995C36.7572 46.4825 35.5007 45.7263 33.7672 45.7263C32.3943 45.7263 31.3356 46.2731 30.591 47.3667C29.8464 48.4487 29.4741 50.0833 29.4741 52.2706ZM45.4074 51.8692C45.4074 50.0193 45.7738 48.3556 46.5068 46.8781C47.2398 45.3889 48.2694 44.2487 49.5957 43.4576C50.922 42.6548 52.4461 42.2534 54.168 42.2534C56.7159 42.2534 58.781 43.0736 60.3633 44.7141C61.9572 46.3545 62.8182 48.5301 62.9461 51.2409L62.9636 52.2357C62.9636 54.0972 62.6029 55.7609 61.8816 57.2268C61.1719 58.6927 60.1481 59.8271 58.8101 60.6299C57.4838 61.4326 55.9481 61.834 54.2029 61.834C51.5387 61.834 49.4038 60.9498 47.7982 59.1814C46.2043 57.4013 45.4074 55.0337 45.4074 52.0786V51.8692ZM49.6481 52.2357C49.6481 54.1786 50.0495 55.7027 50.8522 56.808C51.655 57.9016 52.7719 58.4484 54.2029 58.4484C55.6339 58.4484 56.745 57.89 57.5362 56.7731C58.3389 55.6562 58.7403 54.0216 58.7403 51.8692C58.7403 49.9612 58.3273 48.4487 57.5013 47.3318C56.6869 46.2149 55.5758 45.6565 54.168 45.6565C52.7835 45.6565 51.6841 46.2091 50.8697 47.3144C50.0553 48.408 49.6481 50.0484 49.6481 52.2357ZM83.0852 52.2357C83.0852 55.1559 82.422 57.4886 81.0957 59.2337C79.7694 60.9673 77.9893 61.834 75.7555 61.834C73.6846 61.834 72.0267 61.1534 70.7819 59.7922V68.7448H66.5411V42.6024H70.4503L70.6248 44.5221C71.8697 43.0096 73.5625 42.2534 75.7032 42.2534C78.0068 42.2534 79.8101 43.1144 81.1132 44.8362C82.4278 46.5465 83.0852 48.9257 83.0852 51.9739V52.2357ZM78.8619 51.8692C78.8619 49.9844 78.4838 48.4894 77.7276 47.3842C76.983 46.2789 75.9126 45.7263 74.5165 45.7263C72.783 45.7263 71.5381 46.4418 70.7819 47.8728V56.2495C71.5497 57.7155 72.8062 58.4484 74.5514 58.4484C75.901 58.4484 76.9539 57.9074 77.7101 56.8254C78.478 55.7318 78.8619 54.0797 78.8619 51.8692ZM92.0029 38.0127V42.6024H95.3361V45.7437H92.0029V56.2844C92.0029 57.0058 92.1425 57.5293 92.4217 57.8551C92.7126 58.1692 93.2245 58.3263 93.9575 58.3263C94.4461 58.3263 94.9406 58.2681 95.4409 58.1517V61.4326C94.4752 61.7002 93.5445 61.834 92.6486 61.834C89.391 61.834 87.7622 60.0365 87.7622 56.4415V45.7437H84.6558V42.6024H87.7622V38.0127H92.0029Z" fill="white"/>
<path d="M13.2901 26.1648C12.2971 26.1648 11.3838 25.8995 10.55 25.3689C9.72382 24.8307 9.07576 24.0955 8.60582 23.1632C8.13587 22.2309 7.9009 21.1963 7.9009 20.0593V19.5477C7.9009 18.4107 8.12829 17.3685 8.58308 16.4211C9.03786 15.4736 9.66318 14.7346 10.459 14.204C11.2549 13.6734 12.1228 13.4082 13.0627 13.4082C14.4346 13.4082 15.5564 13.897 16.4281 14.8748C17.2997 15.8526 17.7356 17.1374 17.7356 18.7291V19.3772H8.51486V20.048C8.51486 21.0485 8.7233 21.977 9.14018 22.8335C9.56465 23.6824 10.1445 24.3494 10.8797 24.8345C11.6225 25.3196 12.426 25.5622 13.2901 25.5622C14.1162 25.5622 14.8174 25.4257 15.3934 25.1529C15.9771 24.8724 16.4925 24.4442 16.9397 23.8681L17.3717 24.1751C16.4546 25.5015 15.094 26.1648 13.2901 26.1648ZM13.0627 14.0221C11.8651 14.0221 10.8494 14.4693 10.0156 15.3637C9.18187 16.2505 8.69298 17.3837 8.54897 18.7632H17.1216V18.6154C17.1216 17.7816 16.9435 17.0085 16.5872 16.296C16.2386 15.5759 15.7535 15.0188 15.1319 14.6247C14.518 14.223 13.8282 14.0221 13.0627 14.0221ZM28.548 25.9374C28.3964 25.4144 28.3206 24.664 28.3206 23.6862C27.8355 24.4745 27.1723 25.0847 26.3309 25.5167C25.4896 25.9487 24.5383 26.1648 23.4772 26.1648C22.3402 26.1648 21.4231 25.8578 20.7257 25.2438C20.036 24.6223 19.6911 23.8151 19.6911 22.8221C19.6911 21.6928 20.199 20.7908 21.2146 20.1162C22.2379 19.434 23.5947 19.0853 25.2849 19.0702H28.3206V17.2738C28.3206 16.243 27.9947 15.4433 27.3428 14.8748C26.6985 14.3063 25.7738 14.0221 24.5686 14.0221C23.4468 14.0221 22.5108 14.3101 21.7604 14.8862C21.01 15.4622 20.6348 16.1747 20.6348 17.0237L20.0208 17.0009C20.0208 16.0004 20.4604 15.1515 21.3397 14.4541C22.2189 13.7568 23.2953 13.4082 24.5686 13.4082C25.8951 13.4082 26.9487 13.7417 27.7294 14.4087C28.5101 15.0681 28.9118 16.0004 28.9345 17.2056V23.0836C28.9345 24.4328 29.0407 25.35 29.2529 25.8351V25.9374H28.548ZM23.4772 25.5622C24.6293 25.5622 25.6184 25.3045 26.4446 24.7891C27.2784 24.2736 27.9037 23.5498 28.3206 22.6175V19.6955H25.4782C23.7197 19.6955 22.3743 20.0442 21.442 20.7415C20.6841 21.31 20.3051 22.0187 20.3051 22.8676C20.3051 23.618 20.6045 24.2547 21.2033 24.7777C21.8021 25.3007 22.56 25.5622 23.4772 25.5622ZM40.486 22.9245C40.486 21.4313 39.2126 20.4156 36.6658 19.8774C35.1347 19.5515 34.0698 19.1346 33.471 18.6268C32.8722 18.1113 32.5728 17.4064 32.5728 16.512C32.5728 15.6101 32.9518 14.8672 33.7097 14.2836C34.4753 13.7 35.4682 13.4082 36.6886 13.4082C38.015 13.4082 39.08 13.7265 39.8834 14.3632C40.6868 14.9923 41.0886 15.845 41.0886 16.9213H40.4632C40.4632 16.0952 40.1146 15.4054 39.4173 14.8521C38.7199 14.2988 37.8104 14.0221 36.6886 14.0221C35.6122 14.0221 34.7595 14.2571 34.1304 14.727C33.5013 15.197 33.1867 15.7844 33.1867 16.4893C33.1867 17.0426 33.3042 17.4784 33.5392 17.7968C33.7742 18.1076 34.1569 18.3918 34.6875 18.6495C35.2181 18.8996 35.9912 19.1422 37.0069 19.3772C38.0226 19.6121 38.826 19.8888 39.4173 20.2071C40.0085 20.5255 40.4367 20.9045 40.702 21.3441C40.9673 21.7761 41.0999 22.3067 41.0999 22.9358C41.0999 23.906 40.702 24.6867 39.9061 25.2779C39.1103 25.8692 38.0681 26.1648 36.7795 26.1648C35.4 26.1648 34.2858 25.854 33.4369 25.2325C32.5955 24.6034 32.1749 23.7961 32.1749 22.8108H32.7888C32.8495 23.6748 33.2284 24.3494 33.9258 24.8345C34.6307 25.3121 35.5819 25.5508 36.7795 25.5508C37.8786 25.5508 38.7692 25.2969 39.4514 24.7891C40.1411 24.2736 40.486 23.6521 40.486 22.9245ZM48.2627 24.9823L48.3423 24.7549L52.5945 13.6355H53.2767L47.7739 28.0749L47.501 28.757C46.9098 30.1896 45.932 30.9059 44.5676 30.9059C44.128 30.9059 43.8248 30.8642 43.6581 30.7808L43.6467 30.201C43.8893 30.2692 44.1659 30.3033 44.4767 30.3033C45.121 30.3033 45.6553 30.1138 46.0798 29.7348C46.5043 29.3634 46.8719 28.7532 47.1826 27.9043L47.933 25.8692L43.0328 13.6355H43.7036L48.2627 24.9823Z" fill="white"/>
<path d="M10.55 25.3689L10.4135 25.5784L10.4158 25.5798L10.55 25.3689ZM8.60582 23.1632L8.38257 23.2757L8.60582 23.1632ZM10.459 14.204L10.5977 14.412L10.459 14.204ZM17.7356 19.3772V19.6272H17.9856V19.3772H17.7356ZM8.51486 19.3772V19.1272H8.26486V19.3772H8.51486ZM9.14018 22.8335L8.91538 22.9429L8.91658 22.9453L9.14018 22.8335ZM10.8797 24.8345L10.742 25.0432L10.743 25.0438L10.8797 24.8345ZM15.3934 25.1529L15.5005 25.3788L15.5017 25.3782L15.3934 25.1529ZM16.9397 23.8681L17.0845 23.6643L16.8891 23.5255L16.7422 23.7148L16.9397 23.8681ZM17.3717 24.1751L17.5774 24.3173L17.7177 24.1143L17.5165 23.9713L17.3717 24.1751ZM10.0156 15.3637L10.1978 15.535L10.1985 15.5342L10.0156 15.3637ZM8.54897 18.7632L8.30032 18.7372L8.27151 19.0132H8.54897V18.7632ZM17.1216 18.7632V19.0132H17.3716V18.7632H17.1216ZM16.5872 16.296L16.3622 16.405L16.3636 16.4078L16.5872 16.296ZM15.1319 14.6247L14.995 14.8339L14.998 14.8358L15.1319 14.6247ZM13.2901 25.9148C12.3444 25.9148 11.4777 25.6629 10.6842 25.158L10.4158 25.5798C11.2899 26.136 12.2498 26.4148 13.2901 26.4148V25.9148ZM10.6865 25.1594C9.89945 24.6468 9.28035 23.946 8.82906 23.0507L8.38257 23.2757C8.87116 24.245 9.54819 25.0147 10.4136 25.5784L10.6865 25.1594ZM8.82906 23.0507C8.37824 22.1563 8.1509 21.1607 8.1509 20.0593H7.6509C7.6509 21.2318 7.89351 22.3055 8.38257 23.2757L8.82906 23.0507ZM8.1509 20.0593V19.5477H7.6509V20.0593H8.1509ZM8.1509 19.5477C8.1509 18.4451 8.37118 17.4403 8.80846 16.5293L8.3577 16.3129C7.88541 17.2968 7.6509 18.3764 7.6509 19.5477H8.1509ZM8.80846 16.5293C9.24579 15.6181 9.84282 14.9153 10.5977 14.412L10.3204 13.996C9.48355 14.5539 8.82992 15.3291 8.3577 16.3129L8.80846 16.5293ZM10.5977 14.412C11.3533 13.9083 12.1731 13.6582 13.0627 13.6582V13.1582C12.0725 13.1582 11.1565 13.4386 10.3204 13.996L10.5977 14.412ZM13.0627 13.6582C14.3671 13.6582 15.4197 14.1194 16.2414 15.0412L16.6147 14.7085C15.6931 13.6747 14.5021 13.1582 13.0627 13.1582V13.6582ZM16.2414 15.0412C17.0639 15.9638 17.4856 17.1849 17.4856 18.7291H17.9856C17.9856 17.0898 17.5355 15.7414 16.6147 14.7085L16.2414 15.0412ZM17.4856 18.7291V19.3772H17.9856V18.7291H17.4856ZM17.7356 19.1272H8.51486V19.6272H17.7356V19.1272ZM8.26486 19.3772V20.048H8.76486V19.3772H8.26486ZM8.26486 20.048C8.26486 21.0844 8.48109 22.0506 8.9154 22.9429L9.36497 22.7241C8.96552 21.9034 8.76486 21.0125 8.76486 20.048H8.26486ZM8.91658 22.9453C9.3591 23.8304 9.96733 24.5321 10.742 25.0432L11.0174 24.6259C10.3217 24.1668 9.77019 23.5345 9.36379 22.7217L8.91658 22.9453ZM10.743 25.0438C11.5253 25.5547 12.3761 25.8122 13.2901 25.8122V25.3122C12.4759 25.3122 11.7197 25.0845 11.0164 24.6252L10.743 25.0438ZM13.2901 25.8122C14.1427 25.8122 14.8826 25.6715 15.5004 25.3788L15.2864 24.9269C14.7522 25.18 14.0898 25.3122 13.2901 25.3122V25.8122ZM15.5017 25.3782C16.1244 25.079 16.6692 24.6242 17.1372 24.0214L16.7422 23.7148C16.3157 24.2642 15.8297 24.6659 15.2851 24.9275L15.5017 25.3782ZM16.7949 24.0719L17.2269 24.3789L17.5165 23.9713L17.0845 23.6643L16.7949 24.0719ZM17.1661 24.0329C16.3017 25.283 15.0233 25.9148 13.2901 25.9148V26.4148C15.1648 26.4148 16.6074 25.7201 17.5774 24.3173L17.1661 24.0329ZM13.0627 13.7721C11.7941 13.7721 10.7127 14.2493 9.83277 15.1932L10.1985 15.5342C10.9861 14.6893 11.9361 14.2721 13.0627 14.2721V13.7721ZM9.8335 15.1925C8.95714 16.1246 8.44918 17.3113 8.30032 18.7372L8.79762 18.7892C8.93678 17.4561 9.4066 16.3765 10.1978 15.535L9.8335 15.1925ZM8.54897 19.0132H17.1216V18.5132H8.54897V19.0132ZM17.3716 18.7632V18.6154H16.8716V18.7632H17.3716ZM17.3716 18.6154C17.3716 17.7447 17.1853 16.933 16.8108 16.1842L16.3636 16.4078C16.7017 17.084 16.8716 17.8186 16.8716 18.6154H17.3716ZM16.8122 16.1871C16.4451 15.4289 15.93 14.8348 15.2658 14.4136L14.998 14.8358C15.5769 15.2029 16.032 15.723 16.3622 16.405L16.8122 16.1871ZM15.2688 14.4155C14.6123 13.986 13.8746 13.7721 13.0627 13.7721V14.2721C13.7818 14.2721 14.4236 14.46 14.995 14.8339L15.2688 14.4155ZM28.548 25.9374L28.3079 26.007L28.3602 26.1874H28.548V25.9374ZM28.3206 23.6862H28.5706V22.8029L28.1077 23.5552L28.3206 23.6862ZM20.7257 25.2438L20.5584 25.4296L20.5605 25.4315L20.7257 25.2438ZM21.2146 20.1162L21.3529 20.3244L21.3533 20.3242L21.2146 20.1162ZM25.2849 19.0702V18.8202L25.2827 18.8202L25.2849 19.0702ZM28.3206 19.0702V19.3202H28.5706V19.0702H28.3206ZM27.3428 14.8748L27.1774 15.0623L27.1785 15.0632L27.3428 14.8748ZM20.6348 17.0237L20.6255 17.2735L20.8848 17.2831V17.0237H20.6348ZM20.0208 17.0009H19.7708V17.2418L20.0116 17.2508L20.0208 17.0009ZM21.3397 14.4541L21.1843 14.2583L21.3397 14.4541ZM27.7294 14.4087L27.567 14.5987L27.5681 14.5997L27.7294 14.4087ZM28.9345 17.2056H29.1846L29.1845 17.2009L28.9345 17.2056ZM29.2529 25.8351H29.5029V25.7828L29.4819 25.7348L29.2529 25.8351ZM29.2529 25.9374V26.1874H29.5029V25.9374H29.2529ZM26.4446 24.7891L26.3132 24.5764L26.3123 24.5769L26.4446 24.7891ZM28.3206 22.6175L28.5488 22.7195L28.5706 22.6708V22.6175H28.3206ZM28.3206 19.6955H28.5706V19.4455H28.3206V19.6955ZM21.442 20.7415L21.2923 20.5413L21.292 20.5415L21.442 20.7415ZM28.7881 25.8678C28.6463 25.3786 28.5706 24.656 28.5706 23.6862H28.0706C28.0706 24.672 28.1465 25.4502 28.3079 26.007L28.7881 25.8678ZM28.1077 23.5552C27.6471 24.3037 27.0184 24.8827 26.2167 25.2943L26.4451 25.7391C27.3262 25.2867 28.0239 24.6453 28.5335 23.8172L28.1077 23.5552ZM26.2167 25.2943C25.4148 25.7061 24.5035 25.9148 23.4772 25.9148V26.4148C24.5731 26.4148 25.5643 26.1914 26.4451 25.7391L26.2167 25.2943ZM23.4772 25.9148C22.3868 25.9148 21.533 25.6215 20.8909 25.0562L20.5605 25.4315C21.3132 26.0941 22.2936 26.4148 23.4772 26.4148V25.9148ZM20.8931 25.0581C20.2599 24.4876 19.9411 23.7498 19.9411 22.8221H19.4411C19.4411 23.8803 19.812 24.757 20.5584 25.4296L20.8931 25.0581ZM19.9411 22.8221C19.9411 21.7841 20.4004 20.9571 21.3529 20.3244L21.0763 19.9079C19.9975 20.6245 19.4411 21.6014 19.4411 22.8221H19.9411ZM21.3533 20.3242C22.3236 19.6773 23.6279 19.3351 25.2872 19.3202L25.2827 18.8202C23.5614 18.8356 22.1522 19.1907 21.076 19.9082L21.3533 20.3242ZM25.2849 19.3202H28.3206V18.8202H25.2849V19.3202ZM28.5706 19.0702V17.2738H28.0706V19.0702H28.5706ZM28.5706 17.2738C28.5706 16.1859 28.2239 15.3115 27.5071 14.6864L27.1785 15.0632C27.7654 15.5751 28.0706 16.3 28.0706 17.2738H28.5706ZM27.5082 14.6874C26.8028 14.0649 25.8103 13.7721 24.5686 13.7721V14.2721C25.7373 14.2721 26.5943 14.5478 27.1774 15.0623L27.5082 14.6874ZM24.5686 13.7721C23.4024 13.7721 22.4099 14.0724 21.6081 14.6879L21.9126 15.0845C22.6116 14.5479 23.4913 14.2721 24.5686 14.2721V13.7721ZM21.6081 14.6879C20.8042 15.3051 20.3848 16.0874 20.3848 17.0237H20.8848C20.8848 16.2621 21.2158 15.6194 21.9126 15.0845L21.6081 14.6879ZM20.644 16.7738L20.0301 16.7511L20.0116 17.2508L20.6255 17.2735L20.644 16.7738ZM20.2708 17.0009C20.2708 16.0867 20.6673 15.3065 21.495 14.65L21.1843 14.2583C20.2536 14.9965 19.7708 15.9141 19.7708 17.0009H20.2708ZM21.495 14.65C22.3242 13.9924 23.3437 13.6582 24.5686 13.6582V13.1582C23.2469 13.1582 22.1137 13.5212 21.1843 14.2583L21.495 14.65ZM24.5686 13.6582C25.8533 13.6582 26.8434 13.9805 27.567 14.5987L27.8918 14.2186C27.0539 13.5028 25.9369 13.1582 24.5686 13.1582V13.6582ZM27.5681 14.5997C28.2838 15.2042 28.6629 16.0629 28.6846 17.2103L29.1845 17.2009C29.1607 15.9379 28.7364 14.932 27.8907 14.2177L27.5681 14.5997ZM28.6845 17.2056V23.0836H29.1845V17.2056H28.6845ZM28.6845 23.0836C28.6845 23.7639 28.7112 24.3407 28.7658 24.8121C28.8199 25.2799 28.9031 25.6591 29.0238 25.9353L29.4819 25.7348C29.3905 25.5259 29.3145 25.204 29.2625 24.7546C29.2109 24.3089 29.1845 23.7526 29.1845 23.0836H28.6845ZM29.0029 25.8351V25.9374H29.5029V25.8351H29.0029ZM29.2529 25.6874H28.548V26.1874H29.2529V25.6874ZM23.4772 25.8122C24.6674 25.8122 25.7043 25.5456 26.5769 25.0012L26.3123 24.5769C25.5326 25.0634 24.5912 25.3122 23.4772 25.3122V25.8122ZM26.5761 25.0017C27.4543 24.4588 28.1124 23.6955 28.5488 22.7195L28.0924 22.5154C27.695 23.404 27.1025 24.0885 26.3132 24.5764L26.5761 25.0017ZM28.5706 22.6175V19.6955H28.0706V22.6175H28.5706ZM28.3206 19.4455H25.4782V19.9455H28.3206V19.4455ZM25.4782 19.4455C23.6918 19.4455 22.2849 19.7989 21.2923 20.5413L21.5918 20.9417C22.4638 20.2895 23.7476 19.9455 25.4782 19.9455V19.4455ZM21.292 20.5415C20.4795 21.1509 20.0551 21.9301 20.0551 22.8676H20.5551C20.5551 22.1073 20.8886 21.4691 21.592 20.9415L21.292 20.5415ZM20.0551 22.8676C20.0551 23.6949 20.3893 24.3987 21.0388 24.966L21.3677 24.5894C20.8196 24.1107 20.5551 23.5411 20.5551 22.8676H20.0551ZM21.0388 24.966C21.6901 25.5348 22.5094 25.8122 23.4772 25.8122V25.3122C22.6106 25.3122 21.914 25.0666 21.3677 24.5894L21.0388 24.966ZM36.6658 19.8774L36.6138 20.1219L36.6141 20.122L36.6658 19.8774ZM33.471 18.6268L33.3079 18.8162L33.3093 18.8174L33.471 18.6268ZM33.7097 14.2836L33.5582 14.0848L33.5572 14.0855L33.7097 14.2836ZM39.8834 14.3632L39.7281 14.5591L39.7293 14.56L39.8834 14.3632ZM41.0886 16.9213V17.1713H41.3386V16.9213H41.0886ZM40.4632 16.9213H40.2132V17.1713H40.4632V16.9213ZM39.4173 14.8521L39.2619 15.0479L39.4173 14.8521ZM34.1304 14.727L33.9808 14.5267L34.1304 14.727ZM33.5392 17.7968L33.338 17.9453L33.3398 17.9476L33.5392 17.7968ZM34.6875 18.6495L34.5783 18.8744L34.5809 18.8756L34.6875 18.6495ZM37.0069 19.3772L36.9506 19.6207L37.0069 19.3772ZM40.702 21.3441L40.488 21.4733L40.489 21.4749L40.702 21.3441ZM33.4369 25.2325L33.2872 25.4327L33.2892 25.4342L33.4369 25.2325ZM32.1749 22.8108V22.5608H31.9249V22.8108H32.1749ZM32.7888 22.8108L33.0382 22.7933L33.0219 22.5608H32.7888V22.8108ZM33.9258 24.8345L33.783 25.0398L33.7856 25.0415L33.9258 24.8345ZM39.4514 24.7891L39.6006 24.9896L39.601 24.9893L39.4514 24.7891ZM40.736 22.9245C40.736 22.0942 40.3768 21.3977 39.6868 20.8473C39.0068 20.3049 38.0086 19.9056 36.7175 19.6328L36.6141 20.122C37.8698 20.3873 38.7817 20.765 39.3751 21.2382C39.9585 21.7036 40.236 22.2615 40.236 22.9245H40.736ZM36.7179 19.6329C35.1946 19.3086 34.1817 18.9017 33.6327 18.4361L33.3093 18.8174C33.9578 19.3675 35.0749 19.7944 36.6138 20.1219L36.7179 19.6329ZM33.6341 18.4373C33.0981 17.9759 32.8228 17.3444 32.8228 16.512H32.3228C32.3228 17.4685 32.6463 18.2467 33.3079 18.8162L33.6341 18.4373ZM32.8228 16.512C32.8228 15.6929 33.1614 15.0213 33.8623 14.4817L33.5572 14.0855C32.7421 14.7132 32.3228 15.5272 32.3228 16.512H32.8228ZM33.8613 14.4824C34.5728 13.94 35.5082 13.6582 36.6886 13.6582V13.1582C35.4283 13.1582 34.3778 13.46 33.5582 14.0848L33.8613 14.4824ZM36.6886 13.6582C37.9754 13.6582 38.9804 13.9666 39.7281 14.5591L40.0387 14.1673C39.1795 13.4864 38.0546 13.1582 36.6886 13.1582V13.6582ZM39.7293 14.56C40.4685 15.1388 40.8386 15.917 40.8386 16.9213H41.3386C41.3386 15.773 40.9052 14.8458 40.0375 14.1664L39.7293 14.56ZM41.0886 16.6713H40.4632V17.1713H41.0886V16.6713ZM40.7132 16.9213C40.7132 16.0123 40.3244 15.2528 39.5726 14.6562L39.2619 15.0479C39.9047 15.558 40.2132 16.178 40.2132 16.9213H40.7132ZM39.5726 14.6562C38.8207 14.0596 37.8518 13.7721 36.6886 13.7721V14.2721C37.7689 14.2721 38.6192 14.538 39.2619 15.0479L39.5726 14.6562ZM36.6886 13.7721C35.578 13.7721 34.6666 14.0145 33.9808 14.5267L34.28 14.9273C34.8525 14.4997 35.6465 14.2721 36.6886 14.2721V13.7721ZM33.9808 14.5267C33.2968 15.0377 32.9367 15.6957 32.9367 16.4893H33.4367C33.4367 15.873 33.7058 15.3562 34.28 14.9273L33.9808 14.5267ZM32.9367 16.4893C32.9367 17.0753 33.0609 17.5698 33.3381 17.9453L33.7403 17.6483C33.5475 17.3871 33.4367 17.0099 33.4367 16.4893H32.9367ZM33.3398 17.9476C33.6077 18.3018 34.0289 18.6075 34.5783 18.8744L34.7968 18.4246C34.285 18.1761 33.9407 17.9133 33.7386 17.646L33.3398 17.9476ZM34.5809 18.8756C35.1354 19.137 35.9287 19.3843 36.9506 19.6207L37.0633 19.1336C36.0538 18.9 35.3008 18.6622 34.7941 18.4234L34.5809 18.8756ZM36.9506 19.6207C37.9551 19.8531 38.7348 20.1236 39.2987 20.4273L39.5358 19.987C38.9173 19.654 38.0901 19.3711 37.0633 19.1336L36.9506 19.6207ZM39.2987 20.4273C39.8624 20.7307 40.2519 21.082 40.488 21.4733L40.9161 21.2149C40.6216 20.7269 40.1546 20.3202 39.5358 19.987L39.2987 20.4273ZM40.489 21.4749C40.7249 21.8591 40.8499 22.3418 40.8499 22.9358H41.3499C41.3499 22.2716 41.2097 21.6931 40.9151 21.2133L40.489 21.4749ZM40.8499 22.9358C40.8499 23.8249 40.4911 24.532 39.7571 25.0773L40.0552 25.4786C40.9129 24.8415 41.3499 23.9871 41.3499 22.9358H40.8499ZM39.7571 25.0773C39.0156 25.628 38.0305 25.9148 36.7795 25.9148V26.4148C38.1057 26.4148 39.2049 26.1103 40.0552 25.4786L39.7571 25.0773ZM36.7795 25.9148C35.4367 25.9148 34.379 25.6124 33.5846 25.0308L33.2892 25.4342C34.1926 26.0956 35.3634 26.4148 36.7795 26.4148V25.9148ZM33.5866 25.0323C32.8035 24.4467 32.4249 23.7114 32.4249 22.8108H31.9249C31.9249 23.8808 32.3876 24.76 33.2872 25.4327L33.5866 25.0323ZM32.1749 23.0608H32.7888V22.5608H32.1749V23.0608ZM32.5394 22.8283C32.6052 23.7661 33.0221 24.5105 33.783 25.0398L34.0685 24.6293C33.4347 24.1884 33.0937 23.5836 33.0382 22.7933L32.5394 22.8283ZM33.7856 25.0415C34.5455 25.5563 35.5515 25.8008 36.7795 25.8008V25.3008C35.6123 25.3008 34.7158 25.0678 34.066 24.6276L33.7856 25.0415ZM36.7795 25.8008C37.9166 25.8008 38.8642 25.5378 39.6006 24.9896L39.3021 24.5885C38.6742 25.056 37.8406 25.3008 36.7795 25.3008V25.8008ZM39.601 24.9893C40.3408 24.4365 40.736 23.746 40.736 22.9245H40.236C40.236 23.5582 39.9414 24.1108 39.3017 24.5888L39.601 24.9893ZM48.2627 24.9823L48.0308 25.0755L48.2789 25.693L48.4987 25.0649L48.2627 24.9823ZM48.3423 24.7549L48.1087 24.6656L48.1064 24.6724L48.3423 24.7549ZM52.5945 13.6355V13.3855H52.4225L52.361 13.5462L52.5945 13.6355ZM53.2767 13.6355L53.5103 13.7246L53.6395 13.3855H53.2767V13.6355ZM47.7739 28.0749L48.006 28.1677L48.0075 28.1639L47.7739 28.0749ZM47.501 28.757L47.7321 28.8524L47.7331 28.8499L47.501 28.757ZM43.6581 30.7808L43.4081 30.7857L43.4111 30.9368L43.5463 31.0044L43.6581 30.7808ZM43.6467 30.201L43.7144 29.9603L43.3902 29.8691L43.3968 30.2059L43.6467 30.201ZM46.0798 29.7348L45.9152 29.5466L45.9133 29.5483L46.0798 29.7348ZM47.1826 27.9043L46.9481 27.8178L46.9479 27.8184L47.1826 27.9043ZM47.933 25.8692L48.1676 25.9556L48.2009 25.8654L48.1651 25.7762L47.933 25.8692ZM43.0328 13.6355V13.3855H42.6633L42.8007 13.7285L43.0328 13.6355ZM43.7036 13.6355L43.9355 13.5423L43.8725 13.3855H43.7036V13.6355ZM48.4987 25.0649L48.5783 24.8375L48.1064 24.6724L48.0268 24.8997L48.4987 25.0649ZM48.5758 24.8442L52.828 13.7248L52.361 13.5462L48.1088 24.6656L48.5758 24.8442ZM52.5945 13.8855H53.2767V13.3855H52.5945V13.8855ZM53.0431 13.5465L47.5402 27.9858L48.0075 28.1639L53.5103 13.7246L53.0431 13.5465ZM47.5417 27.982L47.2689 28.6642L47.7331 28.8499L48.006 28.1677L47.5417 27.982ZM47.2699 28.6616C46.987 29.3472 46.6194 29.8425 46.1765 30.167C45.7358 30.4898 45.2037 30.6559 44.5676 30.6559V31.1559C45.296 31.1559 45.9349 30.9638 46.472 30.5703C47.0069 30.1785 47.4238 29.5994 47.7321 28.8524L47.2699 28.6616ZM44.5676 30.6559C44.1277 30.6559 43.8787 30.6116 43.7699 30.5572L43.5463 31.0044C43.771 31.1168 44.1283 31.1559 44.5676 31.1559V30.6559ZM43.908 30.7759L43.8967 30.1961L43.3968 30.2059L43.4081 30.7857L43.908 30.7759ZM43.579 30.4416C43.848 30.5173 44.1481 30.5533 44.4767 30.5533V30.0533C44.1837 30.0533 43.9305 30.0211 43.7144 29.9603L43.579 30.4416ZM44.4767 30.5533C45.1737 30.5533 45.7699 30.3466 46.2463 29.9213L45.9133 29.5483C45.5407 29.881 45.0682 30.0533 44.4767 30.0533V30.5533ZM46.2444 29.9229C46.714 29.512 47.1 28.8573 47.4174 27.9902L46.9479 27.8184C46.6437 28.6492 46.2945 29.2147 45.9152 29.5467L46.2444 29.9229ZM47.4172 27.9908L48.1676 25.9556L47.6985 25.7827L46.9481 27.8178L47.4172 27.9908ZM48.1651 25.7762L43.2648 13.5426L42.8007 13.7285L47.701 25.9621L48.1651 25.7762ZM43.0328 13.8855H43.7036V13.3855H43.0328V13.8855ZM43.4716 13.7288L48.0308 25.0755L48.4947 24.8891L43.9355 13.5423L43.4716 13.7288Z" fill="white"/>
<g opacity="0.8">
<path d="M78.2129 16.4204C73.9667 13.9688 64.2526 17.0652 61.8623 21.2053C60.7897 23.063 61.5569 24.9213 63.9454 26.3003C66.5462 27.8019 69.0108 27.4557 71.134 28.6814C73.204 29.8766 74.1364 32.1843 76.7372 33.6858C79.1258 35.0648 81.1718 34.8306 82.2445 32.9729C84.6347 28.8327 82.4061 18.8413 78.2129 16.4204ZM70.7251 11.248C71.2669 9.08379 70.2425 6.93543 68.4888 6.41828C66.735 5.90113 64.8744 7.16239 64.3857 9.35722C63.8439 11.5214 64.8683 13.6698 66.6221 14.1869C68.3758 14.7041 70.2364 13.4428 70.7251 11.248ZM75.8803 12.7381C77.7709 13.2635 79.8541 11.4939 80.588 8.87441C81.2994 6.17123 80.2997 3.61246 78.4091 3.0871C76.5186 2.56174 74.4353 4.33136 73.7014 6.95082C72.99 9.65401 73.9897 12.2128 75.8803 12.7381ZM91.6839 19.81C90.3592 18.5498 87.9866 18.7369 86.3831 20.2882C84.7269 21.8089 84.5648 24.0508 85.8895 25.3111C87.2143 26.5712 89.587 26.3842 91.1903 24.8329C92.8468 23.3122 93.0087 21.0703 91.6839 19.81ZM82.5151 16.5688C83.9154 17.9434 86.6311 17.5297 88.6166 15.562C90.5181 13.6167 91.009 10.9278 89.6087 9.55317C88.2084 8.17856 85.4927 8.59218 83.5073 10.5599C81.6057 12.5052 81.1148 15.1941 82.5151 16.5688Z" fill="url(#paint0_linear)"/>
</g>
<defs>
<linearGradient id="paint0_linear" x1="54.6376" y1="27.954" x2="96.3867" y2="7.88143" gradientUnits="userSpaceOnUse">
<stop stop-color="#F86B64"/>
<stop offset="1" stop-color="#FA5293"/>
</linearGradient>
</defs>
</svg>
