<svg width="102" height="73" viewBox="0 0 102 73" fill="none" xmlns="http://www.w3.org/2000/svg">
<path d="M17.4661 57.385H7.26762L5.13388 63.515H0.378192L10.3236 37.1869H14.4283L24.3917 63.515H19.618L17.4661 57.385ZM8.55147 53.6962H16.1823L12.3669 42.7743L8.55147 53.6962ZM26.1457 53.5877C26.1457 50.5739 26.8449 48.1569 28.2433 46.3366C29.6417 44.5042 31.5162 43.5881 33.8669 43.5881C35.9404 43.5881 37.616 44.3114 38.8939 45.758V35.7403H43.2879V63.515H39.3098L39.0928 61.4897C37.7788 63.081 36.0248 63.8766 33.8308 63.8766C31.5403 63.8766 29.6839 62.9544 28.2614 61.11C26.8509 59.2656 26.1457 56.7581 26.1457 53.5877ZM30.5398 53.9674C30.5398 55.9565 30.9195 57.5116 31.679 58.6327C32.4505 59.7417 33.5415 60.2963 34.9519 60.2963C36.7481 60.2963 38.0621 59.4946 38.8939 57.8913V49.5372C38.0862 47.97 36.7843 47.1865 34.9881 47.1865C33.5656 47.1865 32.4686 47.7531 31.697 48.8862C30.9255 50.0073 30.5398 51.7011 30.5398 53.9674ZM47.0491 53.5515C47.0491 51.6348 47.4288 49.9109 48.1883 48.3799C48.9477 46.8369 50.0146 45.6555 51.3889 44.8358C52.7631 44.004 54.3423 43.5881 56.1265 43.5881C58.7665 43.5881 60.9063 44.4379 62.5458 46.1377C64.1973 47.8374 65.0894 50.0917 65.222 52.9005L65.24 53.9312C65.24 55.86 64.8663 57.5839 64.1189 59.1028C63.3836 60.6218 62.3227 61.7971 60.9364 62.6289C59.5621 63.4607 57.9709 63.8766 56.1626 63.8766C53.4021 63.8766 51.19 62.9604 49.5264 61.1281C47.8748 59.2837 47.0491 56.8305 47.0491 53.7685V53.5515ZM51.4431 53.9312C51.4431 55.9444 51.859 57.5236 52.6908 58.6688C53.5226 59.802 54.6799 60.3686 56.1626 60.3686C57.6454 60.3686 58.7967 59.79 59.6164 58.6327C60.4482 57.4754 60.8641 55.7817 60.8641 53.5515C60.8641 51.5745 60.4361 50.0073 59.5802 48.8501C58.7364 47.6928 57.5851 47.1141 56.1265 47.1141C54.6919 47.1141 53.5527 47.6868 52.7089 48.832C51.865 49.9651 51.4431 51.6649 51.4431 53.9312ZM86.0891 53.9312C86.0891 56.957 85.402 59.3741 84.0277 61.1823C82.6535 62.9785 80.8091 63.8766 78.4945 63.8766C76.3487 63.8766 74.6309 63.1714 73.341 61.761V71.0373H68.947V43.9497H72.9974L73.1783 45.9388C74.4681 44.3716 76.2221 43.5881 78.4403 43.5881C80.8271 43.5881 82.6957 44.4801 84.0458 46.2643C85.408 48.0363 86.0891 50.5016 86.0891 53.66V53.9312ZM81.7132 53.5515C81.7132 51.5986 81.3214 50.0495 80.5378 48.9043C79.7663 47.7591 78.6572 47.1865 77.2106 47.1865C75.4145 47.1865 74.1246 47.9279 73.341 49.4106V58.0902C74.1366 59.6091 75.4386 60.3686 77.2468 60.3686C78.6452 60.3686 79.7362 59.808 80.5197 58.6869C81.3154 57.5538 81.7132 55.842 81.7132 53.5515ZM95.3293 39.194V43.9497H98.7831V47.2046H95.3293V58.1264C95.3293 58.8738 95.474 59.4163 95.7633 59.7538C96.0647 60.0793 96.5951 60.242 97.3545 60.242C97.8608 60.242 98.3732 60.1817 98.8915 60.0612V63.4607C97.891 63.738 96.9266 63.8766 95.9984 63.8766C92.623 63.8766 90.9353 62.0141 90.9353 58.2891V47.2046H87.7166V43.9497H90.9353V39.194H95.3293Z" fill="#118696"/>
<path d="M13.7705 27.3515C12.7417 27.3515 11.7953 27.0766 10.9314 26.5269C10.0753 25.9693 9.40382 25.2074 8.91689 24.2414C8.42995 23.2754 8.18649 22.2034 8.18649 21.0253V20.4952C8.18649 19.3171 8.4221 18.2373 8.89332 17.2555C9.36455 16.2738 10.0125 15.5081 10.8371 14.9583C11.6618 14.4086 12.561 14.1337 13.5349 14.1337C14.9564 14.1337 16.1188 14.6402 17.0219 15.6534C17.9251 16.6665 18.3767 17.9977 18.3767 19.647V20.3185H8.82264V21.0136C8.82264 22.0502 9.03862 23.0123 9.47057 23.8998C9.91038 24.7794 10.5112 25.4705 11.273 25.9732C12.0427 26.4758 12.8752 26.7271 13.7705 26.7271C14.6266 26.7271 15.353 26.5858 15.9499 26.303C16.5546 26.0125 17.0887 25.5687 17.5521 24.9718L17.9997 25.2899C17.0494 26.6643 15.6397 27.3515 13.7705 27.3515ZM13.5349 14.7698C12.294 14.7698 11.2416 15.2332 10.3777 16.1599C9.51377 17.0788 9.0072 18.253 8.85798 19.6823H17.7406V19.5292C17.7406 18.6653 17.556 17.8642 17.1869 17.126C16.8256 16.3798 16.323 15.8026 15.679 15.3942C15.0428 14.978 14.3281 14.7698 13.5349 14.7698ZM29.5801 27.1159C29.423 26.574 29.3445 25.7965 29.3445 24.7833C28.8418 25.6001 28.1546 26.2324 27.2828 26.68C26.4111 27.1277 25.4254 27.3515 24.3259 27.3515C23.1479 27.3515 22.1976 27.0334 21.475 26.3973C20.7603 25.7533 20.403 24.9169 20.403 23.888C20.403 22.7178 20.9292 21.7832 21.9816 21.0842C23.0418 20.3774 24.4476 20.0161 26.199 20.0004H29.3445V18.1391C29.3445 17.071 29.0067 16.2424 28.3313 15.6534C27.6638 15.0643 26.7056 14.7698 25.4569 14.7698C24.2945 14.7698 23.3246 15.0683 22.547 15.6652C21.7695 16.262 21.3808 17.0003 21.3808 17.8799L20.7446 17.8564C20.7446 16.8197 21.2001 15.94 22.1112 15.2175C23.0222 14.495 24.1374 14.1337 25.4569 14.1337C26.8313 14.1337 27.9229 14.4792 28.7319 15.1704C29.5408 15.8536 29.957 16.8197 29.9806 18.0684V24.159C29.9806 25.5569 30.0906 26.5072 30.3105 27.0099V27.1159H29.5801ZM24.3259 26.7271C25.5197 26.7271 26.5446 26.4601 27.4007 25.9261C28.2646 25.392 28.9125 24.642 29.3445 23.676V20.6484H26.3993C24.5772 20.6484 23.1832 21.0096 22.2172 21.7322C21.4318 22.3212 21.0391 23.0555 21.0391 23.9351C21.0391 24.7127 21.3494 25.3724 21.9698 25.9143C22.5902 26.4562 23.3756 26.7271 24.3259 26.7271ZM41.9497 23.994C41.9497 22.4469 40.6303 21.3945 37.9914 20.8368C36.405 20.4991 35.3015 20.0672 34.6811 19.541C34.0606 19.0069 33.7504 18.2765 33.7504 17.3498C33.7504 16.4152 34.1431 15.6455 34.9285 15.0408C35.7217 14.436 36.7505 14.1337 38.015 14.1337C39.3894 14.1337 40.4928 14.4635 41.3253 15.1233C42.1578 15.7751 42.5741 16.6587 42.5741 17.7739H41.9261C41.9261 16.9178 41.5649 16.2031 40.8423 15.6298C40.1198 15.0565 39.1773 14.7698 38.015 14.7698C36.8997 14.7698 36.0162 15.0133 35.3643 15.5002C34.7125 15.9872 34.3866 16.5958 34.3866 17.3262C34.3866 17.8995 34.5083 18.3511 34.7518 18.681C34.9952 19.003 35.3918 19.2975 35.9416 19.5645C36.4914 19.8237 37.2924 20.075 38.3448 20.3185C39.3972 20.562 40.2297 20.8486 40.8423 21.1785C41.4549 21.5083 41.8987 21.901 42.1735 22.3565C42.4484 22.8042 42.5859 23.354 42.5859 24.0058C42.5859 25.0111 42.1735 25.82 41.3489 26.4326C40.5242 27.0452 39.4444 27.3515 38.1092 27.3515C36.6798 27.3515 35.5253 27.0295 34.6457 26.3855C33.774 25.7336 33.3381 24.8972 33.3381 23.8762H33.9742C34.0371 24.7716 34.4297 25.4705 35.1523 25.9732C35.8827 26.468 36.8683 26.7154 38.1092 26.7154C39.248 26.7154 40.1708 26.4523 40.8777 25.9261C41.5924 25.392 41.9497 24.748 41.9497 23.994ZM50.0076 26.1263L50.0901 25.8907L54.496 14.3693H55.2029L49.5011 29.3307L49.2183 30.0375C48.6057 31.5219 47.5926 32.264 46.1789 32.264C45.7234 32.264 45.4093 32.2208 45.2365 32.1344L45.2247 31.5336C45.476 31.6043 45.7627 31.6397 46.0847 31.6397C46.7523 31.6397 47.306 31.4433 47.7458 31.0506C48.1856 30.6658 48.5665 30.0336 48.8885 29.154L49.666 27.0452L44.5886 14.3693H45.2836L50.0076 26.1263Z" fill="#118696"/>
<g opacity="0.8" filter="url(#filter0_d)">
<path d="M81.0407 17.014C76.6409 14.4738 66.5756 17.6822 64.0988 21.9719C62.9875 23.8968 63.7824 25.8224 66.2573 27.2512C68.9521 28.8071 71.5058 28.4484 73.7058 29.7184C75.8507 30.9568 76.8167 33.3479 79.5116 34.9037C81.9865 36.3326 84.1065 36.0899 85.2179 34.1651C87.6946 29.8752 85.3855 19.5225 81.0407 17.014ZM73.2821 11.6547C73.8434 9.41221 72.7821 7.18618 70.9649 6.65033C69.1477 6.11448 67.2199 7.42135 66.7135 9.69553C66.1521 11.938 67.2135 14.164 69.0307 14.6999C70.8479 15.2357 72.7757 13.9288 73.2821 11.6547ZM78.6237 13.1987C80.5826 13.743 82.7412 11.9094 83.5016 9.19527C84.2387 6.39435 83.2029 3.74307 81.244 3.19871C79.285 2.65436 77.1264 4.48796 76.366 7.20213C75.6289 10.003 76.6647 12.6543 78.6237 13.1987ZM94.9987 20.5263C93.6261 19.2205 91.1677 19.4144 89.5062 21.0217C87.7901 22.5974 87.6221 24.9203 88.9948 26.2262C90.3674 27.5319 92.826 27.3381 94.4873 25.7307C96.2036 24.1551 96.3714 21.8321 94.9987 20.5263ZM85.4984 17.1678C86.9493 18.5921 89.7632 18.1635 91.8204 16.1247C93.7907 14.1091 94.2994 11.3229 92.8485 9.89856C91.3976 8.47425 88.5836 8.90284 86.5264 10.9417C84.5561 12.9573 84.0475 15.7435 85.4984 17.1678Z" fill="url(#paint0_linear)"/>
</g>
<defs>
<filter id="filter0_d" x="59.3717" y="0" width="42.3783" height="42.1261" filterUnits="userSpaceOnUse" color-interpolation-filters="sRGB">
<feFlood flood-opacity="0" result="BackgroundImageFix"/>
<feColorMatrix in="SourceAlpha" type="matrix" values="0 0 0 0 0 0 0 0 0 0 0 0 0 0 0 0 0 0 127 0"/>
<feOffset dy="1.82214"/>
<feGaussianBlur stdDeviation="0.911072"/>
<feColorMatrix type="matrix" values="0 0 0 0 0 0 0 0 0 0 0 0 0 0 0 0 0 0 0.25 0"/>
<feBlend mode="normal" in2="BackgroundImageFix" result="effect1_dropShadow"/>
<feBlend mode="normal" in="SourceGraphic" in2="effect1_dropShadow" result="shape"/>
</filter>
<linearGradient id="paint0_linear" x1="56.6129" y1="28.9646" x2="99.8715" y2="8.16639" gradientUnits="userSpaceOnUse">
<stop stop-color="#F86B64"/>
<stop offset="1" stop-color="#FA5293"/>
</linearGradient>
</defs>
</svg>
