<svg width="102" height="102" viewBox="0 0 102 102" fill="none" xmlns="http://www.w3.org/2000/svg">
<path d="M90.3825 33.5869C89.6808 33.3109 88.9331 33.1702 88.1789 33.1723H88.1C84.1173 33.2315 79.6509 36.9614 77.3071 42.6027C74.4974 49.3516 75.7907 56.2566 80.2176 58.0317C80.9187 58.3077 81.6658 58.4484 82.4192 58.4464C86.4216 58.4464 90.9492 54.6947 93.3127 49.016C96.1028 42.267 94.7897 35.362 90.3825 33.5869Z" stroke="url(#paint0_linear)" stroke-width="3.91748" stroke-miterlimit="10"/>
<path d="M64.6859 59.9233C59.1967 50.8147 56.8273 47.3889 50.5482 47.3889C44.2692 47.3889 41.88 50.8365 36.3908 59.9233C31.6914 67.6951 22.1939 68.3427 19.8244 74.9436C19.3437 76.1526 19.1023 77.4435 19.1136 78.7446C19.1136 84.1133 23.2206 88.4593 28.2755 88.4593C34.5545 88.4593 43.1042 83.446 50.568 83.446C58.0317 83.446 66.542 88.4593 72.821 88.4593C77.8758 88.4593 81.9631 84.1153 81.9631 78.7446C81.9677 77.4423 81.7196 76.1514 81.2326 74.9436C78.8631 68.319 69.3853 67.6951 64.6859 59.9233Z" stroke="url(#paint1_linear)" stroke-width="3.91748" stroke-miterlimit="10"/>
<path d="M38.0119 38.701C38.2763 38.7012 38.5403 38.6814 38.8017 38.6418C43.3846 37.9763 46.2457 31.6262 45.2071 24.4547C44.2297 17.6939 40.1266 12.6371 35.8359 12.6371C35.5715 12.6369 35.3075 12.6567 35.0461 12.6963C30.4632 13.3617 27.6021 19.7119 28.6407 26.8834C29.6181 33.6245 33.7212 38.701 38.0119 38.701Z" stroke="url(#paint2_linear)" stroke-width="3.91748" stroke-miterlimit="10"/>
<path d="M72.4498 26.8834C73.4884 19.7119 70.6273 13.3617 66.0444 12.6963C65.783 12.6567 65.5189 12.6369 65.2545 12.6371C60.9639 12.6371 56.8687 17.6939 55.8893 24.4547C54.8507 31.6262 57.7118 37.9763 62.2947 38.6418C62.5561 38.6814 62.8201 38.7012 63.0845 38.701C67.3752 38.701 71.4783 33.6245 72.4498 26.8834Z" stroke="url(#paint3_linear)" stroke-width="3.91748" stroke-miterlimit="10"/>
<path d="M20.8847 58.0317C25.3056 56.2546 26.597 49.3437 23.7912 42.6027C21.4296 36.9239 16.906 33.1723 12.9095 33.1723C12.156 33.1702 11.409 33.3109 10.7079 33.5869C6.28689 35.364 4.99555 42.2749 7.80136 49.016C10.1629 54.6947 14.6866 58.4464 18.683 58.4464C19.4365 58.4484 20.1836 58.3077 20.8847 58.0317V58.0317Z" stroke="url(#paint4_linear)" stroke-width="3.91748" stroke-miterlimit="10"/>
<defs>
<linearGradient id="paint0_linear" x1="72.9737" y1="58.3803" x2="99.8855" y2="41.2284" gradientUnits="userSpaceOnUse">
<stop stop-color="#F86B64"/>
<stop offset="1" stop-color="#FA5293"/>
</linearGradient>
<linearGradient id="paint1_linear" x1="9.66715" y1="88.352" x2="56.2931" y2="27.718" gradientUnits="userSpaceOnUse">
<stop stop-color="#F86B64"/>
<stop offset="1" stop-color="#FA5293"/>
</linearGradient>
<linearGradient id="paint2_linear" x1="25.8739" y1="38.6329" x2="51.8309" y2="24.2523" gradientUnits="userSpaceOnUse">
<stop stop-color="#F86B64"/>
<stop offset="1" stop-color="#FA5293"/>
</linearGradient>
<linearGradient id="paint3_linear" x1="53.1234" y1="38.6329" x2="79.0756" y2="24.26" gradientUnits="userSpaceOnUse">
<stop stop-color="#F86B64"/>
<stop offset="1" stop-color="#FA5293"/>
</linearGradient>
<linearGradient id="paint4_linear" x1="3.47002" y1="58.3803" x2="30.3816" y2="41.2291" gradientUnits="userSpaceOnUse">
<stop stop-color="#F86B64"/>
<stop offset="1" stop-color="#FA5293"/>
</linearGradient>
</defs>
</svg>
