<svg width="1348" height="313" viewBox="0 0 1348 313" fill="none" xmlns="http://www.w3.org/2000/svg">
<path d="M8.28814 306.175C8.29488 304.329 6.64235 302.829 4.59709 302.823C2.55182 302.816 0.88833 304.307 0.88159 306.153C0.874849 307.998 2.52741 309.499 4.57268 309.505C6.61794 309.511 8.2814 308.02 8.28814 306.175Z" fill="#53ADB9"/>
<path d="M8.37359 282.836C8.38033 280.991 6.7278 279.49 4.68254 279.484C2.63727 279.478 0.97378 280.969 0.967039 282.814C0.960298 284.659 2.61286 286.16 4.65813 286.166C6.70339 286.172 8.36685 284.681 8.37359 282.836Z" fill="#53ADB9"/>
<path d="M8.45855 259.515C8.46529 257.67 6.81276 256.169 4.7675 256.163C2.72223 256.157 1.05874 257.647 1.052 259.493C1.04526 261.338 2.69782 262.839 4.74309 262.845C6.78835 262.851 8.45181 261.36 8.45855 259.515Z" fill="#53ADB9"/>
<path d="M8.54376 236.176C8.5505 234.331 6.89797 232.83 4.8527 232.824C2.80744 232.818 1.14395 234.309 1.1372 236.154C1.13046 237.999 2.78303 239.5 4.82829 239.506C6.87356 239.513 8.53702 238.022 8.54376 236.176Z" fill="#53ADB9"/>
<path d="M8.62896 212.856C8.6357 211.01 6.98317 209.51 4.93791 209.503C2.89264 209.497 1.22915 210.988 1.22241 212.834C1.21567 214.679 2.86823 216.18 4.9135 216.186C6.95876 216.192 8.62222 214.701 8.62896 212.856Z" fill="#53ADB9"/>
<path d="M8.71441 189.517C8.72115 187.672 7.06862 186.171 5.02336 186.165C2.97809 186.159 1.3146 187.65 1.30786 189.495C1.30112 191.341 2.95368 192.841 4.99895 192.847C7.04421 192.854 8.70767 191.363 8.71441 189.517Z" fill="#53ADB9"/>
<path d="M34.1368 306.252C34.1436 304.407 32.491 302.906 30.4457 302.9C28.4005 302.894 26.737 304.385 26.7302 306.23C26.7235 308.075 28.376 309.576 30.4213 309.582C32.4666 309.588 34.1301 308.097 34.1368 306.252Z" fill="#53ADB9"/>
<path d="M34.222 282.913C34.2288 281.068 32.5762 279.567 30.5309 279.561C28.4857 279.555 26.8222 281.046 26.8154 282.891C26.8087 284.736 28.4612 286.237 30.5065 286.243C32.5518 286.249 34.2153 284.759 34.222 282.913Z" fill="#53ADB9"/>
<path d="M34.3072 259.592C34.314 257.747 32.6614 256.246 30.6161 256.24C28.5709 256.234 26.9074 257.725 26.9006 259.57C26.8939 261.415 28.5465 262.916 30.5917 262.922C32.637 262.928 34.3005 261.437 34.3072 259.592Z" fill="#53ADB9"/>
<path d="M34.3924 236.253C34.3992 234.408 32.7466 232.907 30.7013 232.901C28.6561 232.895 26.9926 234.386 26.9858 236.231C26.9791 238.077 28.6317 239.577 30.6769 239.583C32.7222 239.59 34.3857 238.099 34.3924 236.253Z" fill="#53ADB9"/>
<path d="M34.4776 212.933C34.4844 211.087 32.8318 209.587 30.7865 209.581C28.7413 209.574 27.0778 211.065 27.071 212.911C27.0643 214.756 28.7169 216.257 30.7621 216.263C32.8074 216.269 34.4709 214.778 34.4776 212.933Z" fill="#53ADB9"/>
<path d="M34.5628 189.595C34.5696 187.749 32.917 186.248 30.8717 186.242C28.8265 186.236 27.163 187.727 27.1562 189.572C27.1495 191.418 28.8021 192.919 30.8473 192.925C32.8926 192.931 34.5561 191.44 34.5628 189.595Z" fill="#53ADB9"/>
<path d="M1240.7 242.691C1242.74 242.691 1244.4 241.194 1244.4 239.346C1244.4 237.498 1242.74 236 1240.7 236C1238.66 236 1237 237.498 1237 239.346C1237 241.194 1238.66 242.691 1240.7 242.691Z" fill="#53ADB9"/>
<path d="M1266.53 242.691C1268.57 242.691 1270.23 241.194 1270.23 239.346C1270.23 237.498 1268.57 236 1266.53 236C1264.49 236 1262.83 237.498 1262.83 239.346C1262.83 241.194 1264.49 242.691 1266.53 242.691Z" fill="#53ADB9"/>
<path d="M1292.35 242.691C1294.39 242.691 1296.04 241.194 1296.04 239.346C1296.04 237.498 1294.39 236 1292.35 236C1290.3 236 1288.65 237.498 1288.65 239.346C1288.65 241.194 1290.3 242.691 1292.35 242.691Z" fill="#53ADB9"/>
<path d="M1318.18 242.691C1320.22 242.691 1321.88 241.194 1321.88 239.346C1321.88 237.498 1320.22 236 1318.18 236C1316.14 236 1314.48 237.498 1314.48 239.346C1314.48 241.194 1316.14 242.691 1318.18 242.691Z" fill="#53ADB9"/>
<path d="M1343.99 242.691C1346.03 242.691 1347.69 241.194 1347.69 239.346C1347.69 237.498 1346.03 236 1343.99 236C1341.95 236 1340.29 237.498 1340.29 239.346C1340.29 241.194 1341.95 242.691 1343.99 242.691Z" fill="#53ADB9"/>
<path d="M1240.7 266.044C1242.74 266.044 1244.4 264.546 1244.4 262.698C1244.4 260.851 1242.74 259.353 1240.7 259.353C1238.66 259.353 1237 260.851 1237 262.698C1237 264.546 1238.66 266.044 1240.7 266.044Z" fill="#53ADB9"/>
<path d="M1266.53 266.044C1268.57 266.044 1270.23 264.546 1270.23 262.698C1270.23 260.851 1268.57 259.353 1266.53 259.353C1264.49 259.353 1262.83 260.851 1262.83 262.698C1262.83 264.546 1264.49 266.044 1266.53 266.044Z" fill="#53ADB9"/>
<path d="M1292.35 266.044C1294.39 266.044 1296.04 264.546 1296.04 262.698C1296.04 260.851 1294.39 259.353 1292.35 259.353C1290.3 259.353 1288.65 260.851 1288.65 262.698C1288.65 264.546 1290.3 266.044 1292.35 266.044Z" fill="#53ADB9"/>
<path d="M1318.18 266.044C1320.22 266.044 1321.88 264.546 1321.88 262.698C1321.88 260.851 1320.22 259.353 1318.18 259.353C1316.14 259.353 1314.48 260.851 1314.48 262.698C1314.48 264.546 1316.14 266.044 1318.18 266.044Z" fill="#53ADB9"/>
<path d="M1343.99 266.044C1346.03 266.044 1347.69 264.546 1347.69 262.698C1347.69 260.851 1346.03 259.353 1343.99 259.353C1341.95 259.353 1340.29 260.851 1340.29 262.698C1340.29 264.546 1341.95 266.044 1343.99 266.044Z" fill="#53ADB9"/>
<path d="M1240.7 289.415C1242.74 289.415 1244.4 287.917 1244.4 286.069C1244.4 284.221 1242.74 282.724 1240.7 282.724C1238.66 282.724 1237 284.221 1237 286.069C1237 287.917 1238.66 289.415 1240.7 289.415Z" fill="#53ADB9"/>
<path d="M1266.53 289.415C1268.57 289.415 1270.23 287.917 1270.23 286.069C1270.23 284.221 1268.57 282.724 1266.53 282.724C1264.49 282.724 1262.83 284.221 1262.83 286.069C1262.83 287.917 1264.49 289.415 1266.53 289.415Z" fill="#53ADB9"/>
<path d="M1292.35 289.415C1294.39 289.415 1296.04 287.917 1296.04 286.069C1296.04 284.221 1294.39 282.724 1292.35 282.724C1290.3 282.724 1288.65 284.221 1288.65 286.069C1288.65 287.917 1290.3 289.415 1292.35 289.415Z" fill="#53ADB9"/>
<path d="M1318.18 289.415C1320.22 289.415 1321.88 287.917 1321.88 286.069C1321.88 284.221 1320.22 282.724 1318.18 282.724C1316.14 282.724 1314.48 284.221 1314.48 286.069C1314.48 287.917 1316.14 289.415 1318.18 289.415Z" fill="#53ADB9"/>
<path d="M1343.99 289.415C1346.03 289.415 1347.69 287.917 1347.69 286.069C1347.69 284.221 1346.03 282.724 1343.99 282.724C1341.95 282.724 1340.29 284.221 1340.29 286.069C1340.29 287.917 1341.95 289.415 1343.99 289.415Z" fill="#53ADB9"/>
<path d="M1240.7 312.768C1242.74 312.768 1244.4 311.27 1244.4 309.422C1244.4 307.574 1242.74 306.076 1240.7 306.076C1238.66 306.076 1237 307.574 1237 309.422C1237 311.27 1238.66 312.768 1240.7 312.768Z" fill="#53ADB9"/>
<path d="M1266.53 312.768C1268.57 312.768 1270.23 311.27 1270.23 309.422C1270.23 307.574 1268.57 306.076 1266.53 306.076C1264.49 306.076 1262.83 307.574 1262.83 309.422C1262.83 311.27 1264.49 312.768 1266.53 312.768Z" fill="#53ADB9"/>
<path d="M1292.35 312.768C1294.39 312.768 1296.04 311.27 1296.04 309.422C1296.04 307.574 1294.39 306.076 1292.35 306.076C1290.3 306.076 1288.65 307.574 1288.65 309.422C1288.65 311.27 1290.3 312.768 1292.35 312.768Z" fill="#53ADB9"/>
<path d="M1318.18 312.768C1320.22 312.768 1321.88 311.27 1321.88 309.422C1321.88 307.574 1320.22 306.076 1318.18 306.076C1316.14 306.076 1314.48 307.574 1314.48 309.422C1314.48 311.27 1316.14 312.768 1318.18 312.768Z" fill="#53ADB9"/>
<path d="M1343.99 312.768C1346.03 312.768 1347.69 311.27 1347.69 309.422C1347.69 307.574 1346.03 306.076 1343.99 306.076C1341.95 306.076 1340.29 307.574 1340.29 309.422C1340.29 311.27 1341.95 312.768 1343.99 312.768Z" fill="#53ADB9"/>
<path d="M427.703 202.691C429.745 202.691 431.401 201.194 431.401 199.346C431.401 197.498 429.745 196 427.703 196C425.66 196 424.004 197.498 424.004 199.346C424.004 201.194 425.66 202.691 427.703 202.691Z" fill="#53ADB9"/>
<path d="M453.535 202.691C455.578 202.691 457.233 201.194 457.233 199.346C457.233 197.498 455.578 196 453.535 196C451.493 196 449.837 197.498 449.837 199.346C449.837 201.194 451.493 202.691 453.535 202.691Z" fill="#53ADB9"/>
<path d="M479.349 202.691C481.391 202.691 483.047 201.194 483.047 199.346C483.047 197.498 481.391 196 479.349 196C477.306 196 475.65 197.498 475.65 199.346C475.65 201.194 477.306 202.691 479.349 202.691Z" fill="#53ADB9"/>
<path d="M505.182 202.691C507.225 202.691 508.881 201.194 508.881 199.346C508.881 197.498 507.225 196 505.182 196C503.14 196 501.484 197.498 501.484 199.346C501.484 201.194 503.14 202.691 505.182 202.691Z" fill="#53ADB9"/>
<path d="M530.996 202.691C533.038 202.691 534.694 201.194 534.694 199.346C534.694 197.498 533.038 196 530.996 196C528.953 196 527.297 197.498 527.297 199.346C527.297 201.194 528.953 202.691 530.996 202.691Z" fill="#53ADB9"/>
<path d="M556.829 202.691C558.871 202.691 560.527 201.194 560.527 199.346C560.527 197.498 558.871 196 556.829 196C554.786 196 553.13 197.498 553.13 199.346C553.13 201.194 554.786 202.691 556.829 202.691Z" fill="#53ADB9"/>
<path d="M427.702 226.044C429.745 226.044 431.4 224.546 431.4 222.699C431.4 220.851 429.745 219.353 427.702 219.353C425.66 219.353 424.004 220.851 424.004 222.699C424.004 224.546 425.66 226.044 427.702 226.044Z" fill="#53ADB9"/>
<path d="M453.535 226.044C455.578 226.044 457.233 224.546 457.233 222.699C457.233 220.851 455.578 219.353 453.535 219.353C451.493 219.353 449.837 220.851 449.837 222.699C449.837 224.546 451.493 226.044 453.535 226.044Z" fill="#53ADB9"/>
<path d="M479.349 226.044C481.392 226.044 483.048 224.546 483.048 222.699C483.048 220.851 481.392 219.353 479.349 219.353C477.307 219.353 475.651 220.851 475.651 222.699C475.651 224.546 477.307 226.044 479.349 226.044Z" fill="#53ADB9"/>
<path d="M505.182 226.044C507.225 226.044 508.881 224.546 508.881 222.699C508.881 220.851 507.225 219.353 505.182 219.353C503.14 219.353 501.484 220.851 501.484 222.699C501.484 224.546 503.14 226.044 505.182 226.044Z" fill="#53ADB9"/>
<path d="M530.996 226.044C533.038 226.044 534.694 224.546 534.694 222.699C534.694 220.851 533.038 219.353 530.996 219.353C528.953 219.353 527.297 220.851 527.297 222.699C527.297 224.546 528.953 226.044 530.996 226.044Z" fill="#53ADB9"/>
<path d="M556.829 226.044C558.871 226.044 560.527 224.546 560.527 222.699C560.527 220.851 558.871 219.353 556.829 219.353C554.786 219.353 553.13 220.851 553.13 222.699C553.13 224.546 554.786 226.044 556.829 226.044Z" fill="#53ADB9"/>
<path d="M427.702 249.415C429.745 249.415 431.4 247.917 431.4 246.069C431.4 244.221 429.745 242.724 427.702 242.724C425.66 242.724 424.004 244.221 424.004 246.069C424.004 247.917 425.66 249.415 427.702 249.415Z" fill="#53ADB9"/>
<path d="M453.535 249.415C455.578 249.415 457.233 247.917 457.233 246.069C457.233 244.221 455.578 242.724 453.535 242.724C451.493 242.724 449.837 244.221 449.837 246.069C449.837 247.917 451.493 249.415 453.535 249.415Z" fill="#53ADB9"/>
<path d="M479.349 249.415C481.392 249.415 483.048 247.917 483.048 246.069C483.048 244.221 481.392 242.724 479.349 242.724C477.307 242.724 475.651 244.221 475.651 246.069C475.651 247.917 477.307 249.415 479.349 249.415Z" fill="#53ADB9"/>
<path d="M505.182 249.415C507.225 249.415 508.881 247.917 508.881 246.069C508.881 244.221 507.225 242.724 505.182 242.724C503.14 242.724 501.484 244.221 501.484 246.069C501.484 247.917 503.14 249.415 505.182 249.415Z" fill="#53ADB9"/>
<path d="M530.996 249.415C533.038 249.415 534.694 247.917 534.694 246.069C534.694 244.221 533.038 242.724 530.996 242.724C528.953 242.724 527.297 244.221 527.297 246.069C527.297 247.917 528.953 249.415 530.996 249.415Z" fill="#53ADB9"/>
<path d="M556.829 249.415C558.871 249.415 560.527 247.917 560.527 246.069C560.527 244.221 558.871 242.724 556.829 242.724C554.786 242.724 553.13 244.221 553.13 246.069C553.13 247.917 554.786 249.415 556.829 249.415Z" fill="#53ADB9"/>
<path d="M427.702 272.768C429.745 272.768 431.4 271.27 431.4 269.422C431.4 267.574 429.745 266.076 427.702 266.076C425.66 266.076 424.004 267.574 424.004 269.422C424.004 271.27 425.66 272.768 427.702 272.768Z" fill="#53ADB9"/>
<path d="M453.535 272.768C455.578 272.768 457.233 271.27 457.233 269.422C457.233 267.574 455.578 266.076 453.535 266.076C451.493 266.076 449.837 267.574 449.837 269.422C449.837 271.27 451.493 272.768 453.535 272.768Z" fill="#53ADB9"/>
<path d="M479.349 272.768C481.392 272.768 483.048 271.27 483.048 269.422C483.048 267.574 481.392 266.076 479.349 266.076C477.307 266.076 475.651 267.574 475.651 269.422C475.651 271.27 477.307 272.768 479.349 272.768Z" fill="#53ADB9"/>
<path d="M505.182 272.768C507.225 272.768 508.881 271.27 508.881 269.422C508.881 267.574 507.225 266.076 505.182 266.076C503.14 266.076 501.484 267.574 501.484 269.422C501.484 271.27 503.14 272.768 505.182 272.768Z" fill="#53ADB9"/>
<path d="M530.996 272.768C533.038 272.768 534.694 271.27 534.694 269.422C534.694 267.574 533.038 266.076 530.996 266.076C528.953 266.076 527.297 267.574 527.297 269.422C527.297 271.27 528.953 272.768 530.996 272.768Z" fill="#53ADB9"/>
<path d="M556.829 272.768C558.871 272.768 560.527 271.27 560.527 269.422C560.527 267.574 558.871 266.076 556.829 266.076C554.786 266.076 553.13 267.574 553.13 269.422C553.13 271.27 554.786 272.768 556.829 272.768Z" fill="#53ADB9"/>
<path d="M971.994 3.34163C971.994 5.18689 973.652 6.68277 975.697 6.68277C977.743 6.68277 979.401 5.18689 979.401 3.34163C979.401 1.49637 977.743 0.000488216 975.697 0.000488135C973.652 0.000488054 971.994 1.49637 971.994 3.34163Z" fill="#53ADB9"/>
<path d="M971.994 26.6798C971.994 28.525 973.652 30.0209 975.697 30.0209C977.743 30.0209 979.401 28.525 979.401 26.6798C979.401 24.8345 977.743 23.3386 975.697 23.3386C973.652 23.3386 971.994 24.8345 971.994 26.6798Z" fill="#53ADB9"/>
<path d="M971.994 50.0008C971.994 51.8461 973.652 53.3419 975.697 53.3419C977.743 53.3419 979.401 51.8461 979.401 50.0008C979.401 48.1555 977.743 46.6597 975.697 46.6597C973.652 46.6597 971.994 48.1555 971.994 50.0008Z" fill="#53ADB9"/>
<path d="M971.994 73.3399C971.994 75.1852 973.652 76.6811 975.697 76.6811C977.743 76.6811 979.401 75.1852 979.401 73.3399C979.401 71.4947 977.743 69.9988 975.697 69.9988C973.652 69.9988 971.994 71.4947 971.994 73.3399Z" fill="#53ADB9"/>
<path d="M971.994 96.6607C971.994 98.506 973.652 100.002 975.697 100.002C977.743 100.002 979.401 98.506 979.401 96.6607C979.401 94.8155 977.743 93.3196 975.697 93.3196C973.652 93.3196 971.994 94.8155 971.994 96.6607Z" fill="#53ADB9"/>
<path d="M971.994 119.999C971.994 121.844 973.652 123.34 975.697 123.34C977.743 123.34 979.401 121.844 979.401 119.999C979.401 118.154 977.743 116.658 975.697 116.658C973.652 116.658 971.994 118.154 971.994 119.999Z" fill="#53ADB9"/>
<path d="M946.145 3.34114C946.145 5.1864 947.803 6.68228 949.849 6.68228C951.894 6.68228 953.552 5.1864 953.552 3.34114C953.552 1.49588 951.894 -6.54767e-08 949.849 -1.46246e-07C947.803 -2.27015e-07 946.145 1.49588 946.145 3.34114Z" fill="#53ADB9"/>
<path d="M946.145 26.6798C946.145 28.525 947.803 30.0209 949.848 30.0209C951.894 30.0209 953.552 28.525 953.552 26.6798C953.552 24.8345 951.894 23.3386 949.848 23.3386C947.803 23.3386 946.145 24.8345 946.145 26.6798Z" fill="#53ADB9"/>
<path d="M946.145 50.0013C946.145 51.8466 947.803 53.3424 949.848 53.3424C951.894 53.3424 953.552 51.8466 953.552 50.0013C953.552 48.156 951.894 46.6602 949.848 46.6602C947.803 46.6602 946.145 48.156 946.145 50.0013Z" fill="#53ADB9"/>
<path d="M946.145 73.3399C946.145 75.1852 947.803 76.6811 949.848 76.6811C951.894 76.6811 953.552 75.1852 953.552 73.3399C953.552 71.4947 951.894 69.9988 949.848 69.9988C947.803 69.9988 946.145 71.4947 946.145 73.3399Z" fill="#53ADB9"/>
<path d="M946.145 96.6607C946.145 98.506 947.803 100.002 949.848 100.002C951.894 100.002 953.552 98.506 953.552 96.6607C953.552 94.8155 951.894 93.3196 949.848 93.3196C947.803 93.3196 946.145 94.8155 946.145 96.6607Z" fill="#53ADB9"/>
<path d="M946.145 119.999C946.145 121.844 947.803 123.34 949.848 123.34C951.894 123.34 953.552 121.844 953.552 119.999C953.552 118.154 951.894 116.658 949.848 116.658C947.803 116.658 946.145 118.154 946.145 119.999Z" fill="#53ADB9"/>
<path d="M920.277 3.34114C920.277 5.1864 921.935 6.68228 923.98 6.68228C926.025 6.68228 927.683 5.1864 927.683 3.34114C927.683 1.49588 926.025 -6.54768e-08 923.98 -1.46246e-07C921.935 -2.27015e-07 920.277 1.49588 920.277 3.34114Z" fill="#53ADB9"/>
<path d="M920.277 26.6798C920.277 28.525 921.935 30.0209 923.98 30.0209C926.025 30.0209 927.683 28.525 927.683 26.6798C927.683 24.8345 926.025 23.3386 923.98 23.3386C921.935 23.3386 920.277 24.8345 920.277 26.6798Z" fill="#53ADB9"/>
<path d="M920.277 50.0013C920.277 51.8466 921.935 53.3424 923.98 53.3424C926.025 53.3424 927.683 51.8466 927.683 50.0013C927.683 48.156 926.025 46.6602 923.98 46.6602C921.935 46.6602 920.277 48.156 920.277 50.0013Z" fill="#53ADB9"/>
<path d="M920.277 73.3399C920.277 75.1852 921.935 76.6811 923.98 76.6811C926.025 76.6811 927.683 75.1852 927.683 73.3399C927.683 71.4947 926.025 69.9988 923.98 69.9988C921.935 69.9988 920.277 71.4947 920.277 73.3399Z" fill="#53ADB9"/>
<path d="M920.277 96.6607C920.277 98.506 921.935 100.002 923.98 100.002C926.025 100.002 927.683 98.506 927.683 96.6607C927.683 94.8155 926.025 93.3196 923.98 93.3196C921.935 93.3196 920.277 94.8155 920.277 96.6607Z" fill="#53ADB9"/>
<path d="M920.277 119.999C920.277 121.844 921.935 123.34 923.98 123.34C926.025 123.34 927.683 121.844 927.683 119.999C927.683 118.154 926.025 116.658 923.98 116.658C921.935 116.658 920.277 118.154 920.277 119.999Z" fill="#53ADB9"/>
<path d="M894.428 3.34114C894.428 5.1864 896.086 6.68228 898.131 6.68228C900.176 6.68228 901.834 5.1864 901.834 3.34114C901.834 1.49588 900.176 -6.54768e-08 898.131 -1.46246e-07C896.086 -2.27015e-07 894.428 1.49588 894.428 3.34114Z" fill="#53ADB9"/>
<path d="M894.428 26.6798C894.428 28.525 896.086 30.0209 898.131 30.0209C900.176 30.0209 901.834 28.525 901.834 26.6798C901.834 24.8345 900.176 23.3386 898.131 23.3386C896.086 23.3386 894.428 24.8345 894.428 26.6798Z" fill="#53ADB9"/>
<path d="M894.428 50.0013C894.428 51.8466 896.086 53.3424 898.131 53.3424C900.176 53.3424 901.834 51.8466 901.834 50.0013C901.834 48.156 900.176 46.6602 898.131 46.6602C896.086 46.6602 894.428 48.156 894.428 50.0013Z" fill="#53ADB9"/>
<path d="M894.428 73.3399C894.428 75.1852 896.086 76.6811 898.131 76.6811C900.176 76.6811 901.834 75.1852 901.834 73.3399C901.834 71.4947 900.176 69.9988 898.131 69.9988C896.086 69.9988 894.428 71.4947 894.428 73.3399Z" fill="#53ADB9"/>
<path d="M894.428 96.6607C894.428 98.506 896.086 100.002 898.131 100.002C900.176 100.002 901.834 98.506 901.834 96.6607C901.834 94.8155 900.176 93.3196 898.131 93.3196C896.086 93.3196 894.428 94.8155 894.428 96.6607Z" fill="#53ADB9"/>
<path d="M894.428 119.999C894.428 121.844 896.086 123.34 898.131 123.34C900.176 123.34 901.834 121.844 901.834 119.999C901.834 118.154 900.176 116.658 898.131 116.658C896.086 116.658 894.428 118.154 894.428 119.999Z" fill="#53ADB9"/>
<g opacity="0.8">
<path d="M104.213 286.22C101.002 284.545 93.6544 286.661 91.8465 289.49C91.0353 290.759 91.6155 292.029 93.4221 292.971C95.3892 293.997 97.2533 293.761 98.8591 294.598C100.425 295.415 101.13 296.992 103.097 298.018C104.904 298.96 106.451 298.8 107.262 297.531C109.07 294.702 107.385 287.874 104.213 286.22ZM98.5498 282.686C98.9596 281.207 98.1849 279.739 96.8584 279.386C95.5319 279.032 94.1247 279.894 93.7551 281.394C93.3453 282.873 94.1201 284.341 95.4465 284.694C96.773 285.047 98.1802 284.186 98.5498 282.686ZM102.449 283.704C103.879 284.063 105.454 282.854 106.01 281.064C106.548 279.217 105.792 277.468 104.362 277.109C102.932 276.75 101.356 277.96 100.801 279.75C100.263 281.597 101.019 283.345 102.449 283.704ZM114.402 288.536C113.4 287.675 111.605 287.803 110.393 288.863C109.14 289.902 109.017 291.434 110.019 292.295C111.021 293.156 112.816 293.029 114.029 291.969C115.281 290.929 115.404 289.398 114.402 288.536ZM107.467 286.322C108.526 287.261 110.58 286.978 112.082 285.634C113.52 284.304 113.891 282.467 112.832 281.528C111.773 280.588 109.719 280.871 108.218 282.216C106.779 283.545 106.408 285.382 107.467 286.322Z" fill="#53ADB9"/>
</g>
<g opacity="0.8">
<path d="M203.833 215.22C200.621 213.545 193.274 215.661 191.466 218.49C190.655 219.759 191.235 221.029 193.041 221.971C195.009 222.997 196.873 222.761 198.478 223.598C200.044 224.415 200.749 225.992 202.716 227.018C204.523 227.96 206.071 227.8 206.882 226.531C208.69 223.702 207.004 216.874 203.833 215.22ZM198.169 211.686C198.579 210.207 197.804 208.739 196.478 208.386C195.151 208.032 193.744 208.894 193.374 210.394C192.965 211.873 193.739 213.341 195.066 213.694C196.392 214.047 197.8 213.186 198.169 211.686ZM202.068 212.704C203.498 213.063 205.074 211.854 205.629 210.064C206.167 208.217 205.411 206.468 203.981 206.109C202.551 205.75 200.975 206.96 200.42 208.75C199.882 210.597 200.638 212.345 202.068 212.704ZM214.021 217.536C213.019 216.675 211.225 216.803 210.012 217.863C208.759 218.902 208.637 220.434 209.639 221.295C210.641 222.156 212.435 222.029 213.648 220.969C214.901 219.929 215.023 218.398 214.021 217.536ZM207.086 215.322C208.146 216.261 210.2 215.978 211.701 214.634C213.139 213.304 213.511 211.467 212.452 210.528C211.393 209.588 209.339 209.871 207.837 211.216C206.399 212.545 206.027 214.382 207.086 215.322Z" fill="#53ADB9"/>
</g>
<g opacity="0.8">
<path d="M98.6788 97.2202C95.4671 95.545 88.12 97.6608 86.3121 100.49C85.5009 101.759 86.0811 103.029 87.8876 103.971C89.8548 104.997 91.7188 104.761 93.3247 105.598C94.8903 106.415 95.5955 107.992 97.5626 109.018C99.3692 109.96 100.917 109.8 101.728 108.531C103.536 105.702 101.85 98.8744 98.6788 97.2202ZM93.0154 93.6858C93.4252 92.207 92.6504 90.739 91.324 90.3857C89.9975 90.0323 88.5903 90.8941 88.2207 92.3939C87.8109 93.8727 88.5856 95.3407 89.9121 95.6941C91.2386 96.0474 92.6458 95.1856 93.0154 93.6858ZM96.9145 94.7041C98.3444 95.0631 99.9201 93.8539 100.475 92.064C101.013 90.2169 100.257 88.4684 98.8272 88.1094C97.3972 87.7505 95.8216 88.9597 95.2665 90.7496C94.7284 92.5967 95.4845 94.3451 96.9145 94.7041ZM108.867 99.5364C107.865 98.6752 106.071 98.8031 104.858 99.8631C103.606 100.902 103.483 102.434 104.485 103.295C105.487 104.156 107.281 104.029 108.494 102.969C109.747 101.929 109.869 100.398 108.867 99.5364ZM101.933 97.3216C102.992 98.2609 105.046 97.9782 106.547 96.6337C107.986 95.3044 108.357 93.4671 107.298 92.5278C106.239 91.5885 104.185 91.8711 102.683 93.2157C101.245 94.5449 100.874 96.3823 101.933 97.3216Z" fill="#53ADB9"/>
</g>
<g opacity="0.8">
<path d="M972.007 211.22C968.796 209.545 961.448 211.661 959.64 214.49C958.829 215.759 959.409 217.029 961.216 217.971C963.183 218.997 965.047 218.761 966.653 219.598C968.219 220.415 968.924 221.992 970.891 223.018C972.698 223.96 974.245 223.8 975.056 222.531C976.864 219.702 975.179 212.874 972.007 211.22ZM966.344 207.686C966.754 206.207 965.979 204.739 964.652 204.386C963.326 204.032 961.919 204.894 961.549 206.394C961.139 207.873 961.914 209.341 963.24 209.694C964.567 210.047 965.974 209.186 966.344 207.686ZM970.243 208.704C971.673 209.063 973.248 207.854 973.803 206.064C974.342 204.217 973.585 202.468 972.156 202.109C970.726 201.75 969.15 202.96 968.595 204.75C968.057 206.597 968.813 208.345 970.243 208.704ZM982.196 213.536C981.194 212.675 979.399 212.803 978.187 213.863C976.934 214.902 976.811 216.434 977.813 217.295C978.815 218.156 980.61 218.029 981.822 216.969C983.075 215.929 983.198 214.398 982.196 213.536ZM975.261 211.322C976.32 212.261 978.374 211.978 979.876 210.634C981.314 209.304 981.685 207.467 980.626 206.528C979.567 205.588 977.513 205.871 976.011 207.216C974.573 208.545 974.202 210.382 975.261 211.322Z" fill="#53ADB9"/>
</g>
<g opacity="0.8">
<path d="M667.615 212.22C664.404 210.545 657.056 212.661 655.249 215.49C654.437 216.759 655.018 218.029 656.824 218.971C658.791 219.997 660.655 219.761 662.261 220.598C663.827 221.415 664.532 222.992 666.499 224.018C668.306 224.96 669.853 224.8 670.664 223.531C672.472 220.702 670.787 213.874 667.615 212.22ZM661.952 208.686C662.362 207.207 661.587 205.739 660.26 205.386C658.934 205.032 657.527 205.894 657.157 207.394C656.747 208.873 657.522 210.341 658.849 210.694C660.175 211.047 661.582 210.186 661.952 208.686ZM665.851 209.704C667.281 210.063 668.857 208.854 669.412 207.064C669.95 205.217 669.194 203.468 667.764 203.109C666.334 202.75 664.758 203.96 664.203 205.75C663.665 207.597 664.421 209.345 665.851 209.704ZM677.804 214.536C676.802 213.675 675.008 213.803 673.795 214.863C672.542 215.902 672.419 217.434 673.421 218.295C674.423 219.156 676.218 219.029 677.431 217.969C678.683 216.929 678.806 215.398 677.804 214.536ZM670.869 212.322C671.928 213.261 673.982 212.978 675.484 211.634C676.922 210.304 677.293 208.467 676.234 207.528C675.175 206.588 673.121 206.871 671.62 208.216C670.181 209.545 669.81 211.382 670.869 212.322Z" fill="#53ADB9"/>
</g>
<g opacity="0.8">
<path d="M1064.99 104.22C1061.77 102.545 1054.43 104.661 1052.62 107.49C1051.81 108.759 1052.39 110.029 1054.19 110.971C1056.16 111.997 1058.03 111.761 1059.63 112.598C1061.2 113.415 1061.9 114.992 1063.87 116.018C1065.68 116.96 1067.22 116.8 1068.03 115.531C1069.84 112.702 1068.16 105.874 1064.99 104.22ZM1059.32 100.686C1059.73 99.207 1058.96 97.739 1057.63 97.3857C1056.3 97.0323 1054.9 97.8941 1054.53 99.3939C1054.12 100.873 1054.89 102.341 1056.22 102.694C1057.54 103.047 1058.95 102.186 1059.32 100.686ZM1063.22 101.704C1064.65 102.063 1066.23 100.854 1066.78 99.064C1067.32 97.2169 1066.56 95.4684 1065.13 95.1094C1063.7 94.7505 1062.13 95.9597 1061.57 97.7496C1061.03 99.5967 1061.79 101.345 1063.22 101.704ZM1075.17 106.536C1074.17 105.675 1072.38 105.803 1071.16 106.863C1069.91 107.902 1069.79 109.434 1070.79 110.295C1071.79 111.156 1073.59 111.029 1074.8 109.969C1076.05 108.929 1076.18 107.398 1075.17 106.536ZM1068.24 104.322C1069.3 105.261 1071.35 104.978 1072.85 103.634C1074.29 102.304 1074.66 100.467 1073.6 99.5278C1072.55 98.5885 1070.49 98.8711 1068.99 100.216C1067.55 101.545 1067.18 103.382 1068.24 104.322Z" fill="#53ADB9"/>
</g>
<g opacity="0.8">
<path d="M1248.73 131.22C1245.52 129.545 1238.17 131.661 1236.36 134.49C1235.55 135.759 1236.13 137.029 1237.94 137.971C1239.9 138.997 1241.77 138.761 1243.37 139.598C1244.94 140.415 1245.64 141.992 1247.61 143.018C1249.42 143.96 1250.97 143.8 1251.78 142.531C1253.58 139.702 1251.9 132.874 1248.73 131.22ZM1243.06 127.686C1243.47 126.207 1242.7 124.739 1241.37 124.386C1240.05 124.032 1238.64 124.894 1238.27 126.394C1237.86 127.873 1238.63 129.341 1239.96 129.694C1241.29 130.047 1242.69 129.186 1243.06 127.686ZM1246.96 128.704C1248.39 129.063 1249.97 127.854 1250.52 126.064C1251.06 124.217 1250.31 122.468 1248.88 122.109C1247.45 121.75 1245.87 122.96 1245.32 124.75C1244.78 126.597 1245.53 128.345 1246.96 128.704ZM1258.92 133.536C1257.91 132.675 1256.12 132.803 1254.91 133.863C1253.65 134.902 1253.53 136.434 1254.53 137.295C1255.54 138.156 1257.33 138.029 1258.54 136.969C1259.8 135.929 1259.92 134.398 1258.92 133.536ZM1251.98 131.322C1253.04 132.261 1255.09 131.978 1256.6 130.634C1258.03 129.304 1258.41 127.467 1257.35 126.528C1256.29 125.588 1254.23 125.871 1252.73 127.216C1251.29 128.545 1250.92 130.382 1251.98 131.322Z" fill="#53ADB9"/>
</g>
</svg>
