<svg width="374" height="273" viewBox="0 0 374 273" fill="none" xmlns="http://www.w3.org/2000/svg">
<path d="M65.3186 215.453H27.1789L19.1993 238.377H1.41435L38.6073 139.917H53.9578L91.2184 238.377H73.3658L65.3186 215.453ZM31.9802 201.658H60.5173L46.2487 160.813L31.9802 201.658ZM97.7779 201.252C97.7779 189.981 100.393 180.942 105.622 174.135C110.852 167.282 117.862 163.856 126.653 163.856C134.407 163.856 140.674 166.561 145.452 171.971V134.508H161.885V238.377H147.008L146.196 230.803C141.282 236.754 134.723 239.73 126.518 239.73C117.952 239.73 111.01 236.281 105.69 229.383C100.415 222.486 97.7779 213.109 97.7779 201.252ZM114.21 202.672C114.21 210.111 115.63 215.926 118.471 220.119C121.356 224.267 125.436 226.34 130.711 226.34C137.428 226.34 142.342 223.342 145.452 217.346V186.104C142.432 180.244 137.563 177.313 130.846 177.313C125.526 177.313 121.424 179.432 118.538 183.67C115.653 187.863 114.21 194.197 114.21 202.672ZM175.951 201.117C175.951 193.949 177.371 187.502 180.211 181.776C183.051 176.006 187.041 171.588 192.18 168.522C197.32 165.412 203.225 163.856 209.898 163.856C219.771 163.856 227.773 167.035 233.904 173.391C240.08 179.748 243.416 188.178 243.912 198.682L243.98 202.537C243.98 209.75 242.582 216.197 239.787 221.877C237.037 227.558 233.07 231.953 227.886 235.064C222.746 238.174 216.795 239.73 210.033 239.73C199.709 239.73 191.436 236.304 185.215 229.451C179.039 222.553 175.951 213.379 175.951 201.928V201.117ZM192.383 202.537C192.383 210.066 193.939 215.971 197.049 220.254C200.16 224.492 204.488 226.611 210.033 226.611C215.578 226.611 219.883 224.447 222.949 220.119C226.06 215.791 227.615 209.457 227.615 201.117C227.615 193.723 226.015 187.863 222.814 183.535C219.658 179.207 215.353 177.043 209.898 177.043C204.533 177.043 200.273 179.184 197.117 183.467C193.961 187.705 192.383 194.061 192.383 202.537ZM321.95 202.537C321.95 213.853 319.38 222.892 314.241 229.654C309.101 236.371 302.204 239.73 293.548 239.73C285.523 239.73 279.099 237.092 274.275 231.818V266.509H257.843V165.209H272.99L273.667 172.647C278.49 166.787 285.05 163.856 293.345 163.856C302.271 163.856 309.259 167.192 314.308 173.864C319.403 180.492 321.95 189.711 321.95 201.523V202.537ZM305.585 201.117C305.585 193.813 304.12 188.02 301.189 183.738C298.304 179.455 294.157 177.313 288.747 177.313C282.029 177.313 277.206 180.086 274.275 185.631V218.09C277.251 223.771 282.12 226.611 288.882 226.611C294.111 226.611 298.191 224.514 301.122 220.322C304.097 216.084 305.585 209.682 305.585 201.117ZM356.505 147.424V165.209H369.422V177.381H356.505V218.226C356.505 221.021 357.046 223.049 358.128 224.312C359.255 225.529 361.239 226.137 364.079 226.137C365.973 226.137 367.889 225.912 369.827 225.461V238.174C366.085 239.211 362.479 239.73 359.007 239.73C346.384 239.73 340.073 232.765 340.073 218.834V177.381H328.036V165.209H340.073V147.424H356.505Z" fill="#118696"/>
<path d="M51.4982 104.013C47.6506 104.013 44.1114 102.985 40.8806 100.929C37.6792 98.8439 35.168 95.995 33.347 92.3824C31.526 88.7698 30.6155 84.7606 30.6155 80.355V78.3725C30.6155 73.9669 31.4966 69.9284 33.2589 66.257C35.0211 62.5857 37.4442 59.722 40.5282 57.6661C43.6121 55.6101 46.9751 54.5821 50.617 54.5821C55.9332 54.5821 60.28 56.4765 63.6577 60.2654C67.0353 64.0542 68.7241 69.0326 68.7241 75.2004V77.7116H32.9945V80.311C32.9945 84.1879 33.8022 87.7858 35.4176 91.1047C37.0624 94.3943 39.3093 96.9789 42.1582 98.8586C45.0366 100.738 48.1499 101.678 51.4982 101.678C54.6996 101.678 57.4164 101.15 59.6486 100.092C61.9101 99.0055 63.9073 97.346 65.6402 95.1138L67.3143 96.3034C63.7605 101.443 58.4884 104.013 51.4982 104.013ZM50.617 56.9612C45.9764 56.9612 42.0408 58.694 38.81 62.1598C35.5792 65.5962 33.6848 69.9871 33.1267 75.3326H66.3451V74.7599C66.3451 71.5291 65.6549 68.5333 64.2745 65.7724C62.9234 62.9822 61.0437 60.8234 58.6353 59.2961C56.2562 57.7395 53.5835 56.9612 50.617 56.9612ZM110.622 103.132C110.034 101.105 109.74 98.1978 109.74 94.4089C107.861 97.4635 105.291 99.8279 102.031 101.502C98.7705 103.176 95.0845 104.013 90.9725 104.013C86.5669 104.013 83.013 102.824 80.3109 100.445C77.6382 98.0362 76.3018 94.9083 76.3018 91.0607C76.3018 86.6844 78.2697 83.1893 82.2053 80.5753C86.1704 77.9319 91.4278 76.5809 97.9775 76.5221H109.74V69.5612C109.74 65.5668 108.478 62.4682 105.952 60.2654C103.455 58.0626 99.8719 56.9612 95.2019 56.9612C90.8551 56.9612 87.2278 58.0772 84.32 60.3094C81.4123 62.5416 79.9585 65.3025 79.9585 68.592L77.5794 68.5039C77.5794 64.6269 79.283 61.3374 82.69 58.6353C86.097 55.9332 90.2676 54.5821 95.2019 54.5821C100.342 54.5821 104.424 55.8744 107.45 58.4591C110.475 61.0143 112.031 64.6269 112.12 69.2969V92.074C112.12 97.302 112.531 100.856 113.353 102.736V103.132H110.622ZM90.9725 101.678C95.4369 101.678 99.2698 100.68 102.471 98.6824C105.702 96.6852 108.125 93.8803 109.74 90.2677V78.9452H98.7264C91.9124 78.9452 86.6991 80.2963 83.0865 82.9984C80.1494 85.2012 78.6809 87.9474 78.6809 91.2369C78.6809 94.1446 79.841 96.6118 82.1613 98.6383C84.4816 100.665 87.4187 101.678 90.9725 101.678ZM156.881 91.4572C156.881 85.6711 151.946 81.7354 142.078 79.6501C136.145 78.3872 132.018 76.7718 129.698 74.8039C127.378 72.8067 126.218 70.0752 126.218 66.6095C126.218 63.1143 127.686 60.236 130.623 57.9744C133.59 55.7129 137.437 54.5821 142.166 54.5821C147.306 54.5821 151.432 55.8157 154.546 58.2828C157.659 60.7206 159.216 64.0248 159.216 68.1955H156.793C156.793 64.9941 155.441 62.3213 152.739 60.1773C150.037 58.0332 146.513 56.9612 142.166 56.9612C137.995 56.9612 134.691 57.8717 132.253 59.6926C129.815 61.5136 128.597 63.7899 128.597 66.5214C128.597 68.6654 129.052 70.3542 129.962 71.5878C130.873 72.792 132.356 73.8934 134.412 74.892C136.468 75.8613 139.464 76.8011 143.399 77.7116C147.335 78.6221 150.448 79.6942 152.739 80.9277C155.03 82.1613 156.69 83.6299 157.718 85.3334C158.746 87.0075 159.26 89.0635 159.26 91.5012C159.26 95.2607 157.718 98.2859 154.634 100.577C151.55 102.868 147.511 104.013 142.518 104.013C137.173 104.013 132.855 102.809 129.566 100.401C126.306 97.9628 124.676 94.8348 124.676 91.0166H127.055C127.29 94.3649 128.758 96.9789 131.46 98.8586C134.192 100.709 137.878 101.634 142.518 101.634C146.777 101.634 150.228 100.65 152.872 98.6824C155.544 96.6852 156.881 94.2768 156.881 91.4572ZM187.015 99.4314L187.324 98.5502L203.801 55.4632H206.444L185.121 111.415L184.063 114.058C181.772 119.609 177.984 122.385 172.697 122.385C170.993 122.385 169.818 122.223 169.172 121.9L169.128 119.653C170.068 119.918 171.14 120.05 172.344 120.05C174.841 120.05 176.912 119.315 178.556 117.847C180.201 116.408 181.626 114.043 182.83 110.754L185.737 102.868L166.749 55.4632H169.349L187.015 99.4314Z" fill="#118696"/>
<g opacity="0.8" filter="url(#filter0_d)">
<path d="M303.07 63.6278C286.616 54.1281 248.975 66.1265 239.713 82.1691C235.556 89.3675 238.529 96.5685 247.784 101.912C257.863 107.731 267.413 106.389 275.64 111.139C283.661 115.77 287.274 124.712 297.352 130.53C306.608 135.874 314.536 134.966 318.692 127.768C327.954 111.725 319.319 73.0088 303.07 63.6278ZM274.055 43.5852C276.155 35.1991 272.186 26.8743 265.39 24.8704C258.594 22.8665 251.384 27.7538 249.491 36.2586C247.391 44.6448 251.361 52.9695 258.156 54.9735C264.952 56.9774 272.162 52.0901 274.055 43.5852ZM294.031 49.3595C301.357 51.3952 309.43 44.538 312.273 34.3878C315.03 23.9131 311.156 13.998 303.831 11.9623C296.505 9.92656 288.432 16.7837 285.589 26.934C282.832 37.4087 286.705 47.3237 294.031 49.3595ZM355.27 76.7627C350.136 71.8793 340.943 72.6044 334.729 78.6154C328.311 84.508 327.683 93.1952 332.816 98.0789C337.95 102.962 347.144 102.237 353.357 96.2258C359.776 90.3334 360.403 81.646 355.27 76.7627ZM319.741 64.2029C325.167 69.5294 335.69 67.9266 343.384 60.3019C350.752 52.764 352.654 42.3444 347.228 37.0179C341.802 31.6914 331.279 33.2942 323.586 40.9188C316.217 48.4567 314.315 58.8763 319.741 64.2029Z" fill="url(#paint0_linear)"/>
</g>
<defs>
<filter id="filter0_d" x="231.059" y="11.6039" width="134.453" height="135.978" filterUnits="userSpaceOnUse" color-interpolation-filters="sRGB">
<feFlood flood-opacity="0" result="BackgroundImageFix"/>
<feColorMatrix in="SourceAlpha" type="matrix" values="0 0 0 0 0 0 0 0 0 0 0 0 0 0 0 0 0 0 127 0"/>
<feOffset dy="6.81432"/>
<feGaussianBlur stdDeviation="3.40716"/>
<feColorMatrix type="matrix" values="0 0 0 0 0 0 0 0 0 0 0 0 0 0 0 0 0 0 0.25 0"/>
<feBlend mode="normal" in2="BackgroundImageFix" result="effect1_dropShadow"/>
<feBlend mode="normal" in="SourceGraphic" in2="effect1_dropShadow" result="shape"/>
</filter>
<linearGradient id="paint0_linear" x1="211.717" y1="108.32" x2="373.493" y2="30.54" gradientUnits="userSpaceOnUse">
<stop stop-color="#F86B64"/>
<stop offset="1" stop-color="#FA5293"/>
</linearGradient>
</defs>
</svg>
